<svg width="24" height="24" viewBox="0 0 24 24" fill="none" xmlns="http://www.w3.org/2000/svg">
<g clip-path="url(#clip0_1270_5456)">
<path d="M23.381 7.55283C22.5585 6.73036 21.2203 6.73041 20.3976 7.55302L18.2822 9.67017V4.09809C18.2822 3.53466 18.0628 3.00497 17.6644 2.60658L15.6757 0.617813C15.2773 0.219375 14.7476 0 14.1841 0H2.11035C0.947242 0 0.000976562 0.946266 0.000976562 2.10938V21.8906C0.000976562 23.0537 0.947242 24 2.11035 24H16.1729C17.336 24 18.2822 23.0537 18.2822 21.8906V15.639L23.3809 10.536C24.2053 9.71161 24.2055 8.37727 23.381 7.55283ZM14.0635 1.40625C14.1964 1.40625 14.4524 1.38323 14.6813 1.61217L16.6701 3.60094C16.8932 3.82411 16.876 4.06866 16.876 4.21875H14.0635V1.40625ZM16.876 21.8906C16.876 22.2783 16.5606 22.5938 16.1729 22.5938H2.11035C1.72265 22.5938 1.40723 22.2783 1.40723 21.8906V2.10938C1.40723 1.72167 1.72265 1.40625 2.11035 1.40625H12.6572V4.92188C12.6572 5.31019 12.972 5.625 13.3604 5.625H16.876V11.0776L14.8015 13.1539L13.8076 14.1478C13.7304 14.225 13.6722 14.3191 13.6377 14.4226L12.6433 17.4058C12.602 17.5296 12.596 17.6626 12.626 17.7897C12.656 17.9168 12.7208 18.033 12.8131 18.1254C12.9055 18.2177 13.0217 18.2825 13.1488 18.3125C13.2759 18.3425 13.4088 18.3365 13.5327 18.2952L16.5158 17.3008C16.6194 17.2663 16.7135 17.2081 16.7907 17.1309L16.876 17.0456V21.8906ZM15.2991 14.645L16.2935 15.6394L15.9136 16.0192L14.4221 16.5164L14.9193 15.0248L15.2991 14.645ZM17.2876 14.6448L16.2933 13.6504L19.6732 10.2676L20.6676 11.262L17.2876 14.6448ZM22.3864 9.54178L21.6615 10.2672L20.6672 9.27286L21.3922 8.54719C21.6666 8.27302 22.1125 8.27306 22.3866 8.54719C22.6607 8.82141 22.6622 9.26592 22.3864 9.54178Z" fill="#9096A2"/>
<path d="M13.3604 7.03125H3.5166C3.12829 7.03125 2.81348 7.34606 2.81348 7.73438C2.81348 8.12269 3.12829 8.4375 3.5166 8.4375H13.3604C13.7487 8.4375 14.0635 8.12269 14.0635 7.73438C14.0635 7.34606 13.7487 7.03125 13.3604 7.03125ZM10.5479 9.84375H3.5166C3.12829 9.84375 2.81348 10.1586 2.81348 10.5469C2.81348 10.9352 3.12829 11.25 3.5166 11.25H10.5479C10.9362 11.25 11.251 10.9352 11.251 10.5469C11.251 10.1586 10.9362 9.84375 10.5479 9.84375ZM10.5479 12.6562H3.5166C3.12829 12.6562 2.81348 12.9711 2.81348 13.3594C2.81348 13.7477 3.12829 14.0625 3.5166 14.0625H10.5479C10.9362 14.0625 11.251 13.7477 11.251 13.3594C11.251 12.9711 10.9362 12.6562 10.5479 12.6562ZM10.5479 15.4688H3.5166C3.12829 15.4688 2.81348 15.7836 2.81348 16.1719C2.81348 16.5602 3.12829 16.875 3.5166 16.875H10.5479C10.9362 16.875 11.251 16.5602 11.251 16.1719C11.251 15.7836 10.9362 15.4688 10.5479 15.4688ZM13.3604 19.7812H9.1416C8.75329 19.7812 8.43848 20.0961 8.43848 20.4844C8.43848 20.8727 8.75329 21.1875 9.1416 21.1875H13.3604C13.7487 21.1875 14.0635 20.8727 14.0635 20.4844C14.0635 20.0961 13.7487 19.7812 13.3604 19.7812Z" fill="#9096A2"/>
</g>
<defs>
<clipPath id="clip0_1270_5456">
<rect width="24" height="24" fill="white"/>
</clipPath>
</defs>
</svg>
