<svg width="24" height="24" viewBox="0 0 24 24" fill="none" xmlns="http://www.w3.org/2000/svg">
<path d="M11.7352 14.7131C12.6775 13.9211 13.3533 12.8585 13.6711 11.6693C13.989 10.4802 13.9334 9.22208 13.5119 8.0656C13.0904 6.90913 12.3234 5.91027 11.315 5.20447C10.3066 4.49868 9.10548 4.12012 7.8746 4.12012C6.64371 4.12012 5.44261 4.49868 4.43418 5.20447C3.42575 5.91027 2.65879 6.90913 2.23731 8.0656C1.81583 9.22208 1.76024 10.4802 2.07805 11.6693C2.39587 12.8585 3.07173 13.9211 4.01397 14.7131C2.54264 15.3784 1.26758 16.4116 0.311784 17.7131C0.13525 17.9537 0.0615074 18.2545 0.10678 18.5494C0.152052 18.8444 0.312631 19.1092 0.553191 19.2858C0.79375 19.4623 1.09459 19.536 1.38952 19.4908C1.68445 19.4455 1.94931 19.2849 2.12585 19.0444C2.78748 18.1407 3.65281 17.4058 4.65163 16.8992C5.65046 16.3926 6.75464 16.1286 7.8746 16.1286C8.99455 16.1286 10.0987 16.3926 11.0976 16.8992C12.0964 17.4058 12.9617 18.1407 13.6233 19.0444C13.7999 19.285 14.0648 19.4457 14.3598 19.4911C14.6548 19.5365 14.9558 19.4628 15.1965 19.2862C15.4372 19.1097 15.5979 18.8448 15.6432 18.5498C15.6886 18.2547 15.6149 17.9538 15.4383 17.7131C14.482 16.4118 13.2067 15.3786 11.7352 14.7131ZM4.1246 10.125C4.1246 9.3833 4.34453 8.65828 4.75659 8.0416C5.16864 7.42491 5.75431 6.94426 6.43953 6.66044C7.12476 6.37661 7.87876 6.30234 8.60618 6.44704C9.33361 6.59173 10.0018 6.94889 10.5262 7.47333C11.0507 7.99778 11.4078 8.66597 11.5525 9.3934C11.6972 10.1208 11.623 10.8748 11.3391 11.56C11.0553 12.2453 10.5747 12.8309 9.95798 13.243C9.3413 13.6551 8.61628 13.875 7.8746 13.875C6.88003 13.875 5.92621 13.4799 5.22295 12.7766C4.51968 12.0734 4.1246 11.1195 4.1246 10.125ZM23.4465 19.2815C23.3274 19.3691 23.1922 19.4323 23.0487 19.4675C22.9051 19.5028 22.7561 19.5094 22.61 19.487C22.4639 19.4646 22.3236 19.4137 22.1972 19.3371C22.0709 19.2605 21.9608 19.1598 21.8733 19.0406C21.2101 18.1387 20.3444 17.4051 19.3459 16.8987C18.3475 16.3923 17.2441 16.1273 16.1246 16.125C15.8262 16.125 15.5401 16.0065 15.3291 15.7955C15.1181 15.5845 14.9996 15.2984 14.9996 15C14.9996 14.7016 15.1181 14.4155 15.3291 14.2045C15.5401 13.9935 15.8262 13.875 16.1246 13.875C16.6576 13.874 17.1843 13.7595 17.6695 13.5389C18.1548 13.3184 18.5874 12.997 18.9386 12.596C19.2899 12.1951 19.5516 11.7239 19.7063 11.2139C19.8611 10.7038 19.9054 10.1667 19.8362 9.63817C19.767 9.10967 19.5859 8.602 19.3051 8.149C19.0242 7.69599 18.65 7.30806 18.2074 7.01107C17.7648 6.71408 17.264 6.51485 16.7383 6.42667C16.2127 6.33849 15.6743 6.36337 15.159 6.49967C15.0151 6.54131 14.8643 6.55378 14.7155 6.53635C14.5667 6.51893 14.4228 6.47196 14.2924 6.39819C14.162 6.32443 14.0477 6.22537 13.9561 6.10682C13.8645 5.98826 13.7975 5.85261 13.759 5.70781C13.7206 5.56301 13.7114 5.41199 13.7321 5.26361C13.7528 5.11523 13.8029 4.97247 13.8795 4.84372C13.9561 4.71497 14.0577 4.60282 14.1782 4.51385C14.2988 4.42488 14.4359 4.36088 14.5815 4.32561C15.8991 3.97648 17.2963 4.08641 18.5431 4.6373C19.7899 5.18819 20.812 6.1472 21.4411 7.35644C22.0701 8.56569 22.2687 9.95309 22.0041 11.2902C21.7395 12.6274 21.0274 13.8346 19.9852 14.7131C21.4566 15.3784 22.7316 16.4116 23.6874 17.7131C23.8627 17.9533 23.9357 18.2531 23.8906 18.547C23.8454 18.8409 23.6858 19.105 23.4465 19.2815Z" fill="#376DA4"/>
</svg>
