<svg width="60" height="61" viewBox="0 0 60 61" fill="none" xmlns="http://www.w3.org/2000/svg">
<path opacity="0.5" fill-rule="evenodd" clip-rule="evenodd" d="M0.916016 30.5V37.5C0.916016 50.2025 11.2135 60.5 23.916 60.5H30.458H37C49.7025 60.5 60 50.2025 60 37.5V30.5V23.5C60 10.7975 49.7025 0.5 37 0.5H30.458H23.916C11.2135 0.5 0.916016 10.7975 0.916016 23.5V30.5Z" fill="#FFDED1"/>
<path d="M38.4405 44.0178H21.8776C21.1664 44.0178 20.5899 43.4413 20.5899 42.73V18.9492H18.4556C17.6764 18.9492 17.0447 19.5809 17.0447 20.3602V45.5877C17.0447 46.3669 17.6764 46.9986 18.4556 46.9986H37.0296C37.8089 46.9986 38.4406 46.3669 38.4406 45.5876V44.0178H38.4405Z" fill="#8AC9FE"/>
<path d="M20.5899 18.9492V42.73C20.5899 43.4413 21.1664 44.0178 21.8776 44.0178H38.4405V45.5877C38.4405 45.8625 38.3616 46.1188 38.2257 46.3357H20.7131C19.9339 46.3357 19.3022 45.704 19.3022 44.9247V43.8945L19.9461 19.6972L20.5899 18.9492Z" fill="#60B7FF"/>
<path d="M40.698 41.762H24.1351C23.4239 41.762 22.8474 41.1854 22.8474 40.4742V17.2578H20.7131C19.9339 17.2578 19.3022 17.8895 19.3022 18.6688V43.8962C19.3022 44.6755 19.9339 45.3072 20.7131 45.3072H39.2871C40.0664 45.3072 40.6981 44.6755 40.6981 43.8962V41.762H40.698Z" fill="#FED402"/>
<path d="M22.8475 17.2578V40.4742C22.8475 41.1854 23.4241 41.762 24.1353 41.762H40.6981V43.8962C40.6981 44.0111 40.6841 44.1226 40.6582 44.2294H22.9707C22.1915 44.2294 21.5598 43.5977 21.5598 42.8185V41.6387L22.2037 39.8575V17.591L22.8475 17.2578Z" fill="#FAC600"/>
<path d="M41.4159 43.0494H22.9707C22.1915 43.0494 21.5598 42.4177 21.5598 41.6384V16.411C21.5598 15.6317 22.1915 15 22.9707 15H37.2397L42.8268 20.7158V41.6384C42.8269 42.4177 42.1952 43.0494 41.4159 43.0494Z" fill="#EFEDEF"/>
<path d="M41.0239 18.7852V41.6393C41.0239 42.4186 40.3922 43.0503 39.613 43.0503H41.5446C42.3239 43.0503 42.9555 42.4186 42.9555 41.6393V20.7167L41.0239 18.7852Z" fill="#D7D0D6"/>
<path d="M42.9555 20.7158H38.6504C37.8713 20.7158 37.2397 20.0843 37.2397 19.3051V15L42.9555 20.7158ZM38.7013 25.9285H25.814C25.6859 25.9285 25.5631 25.8776 25.4725 25.787C25.3819 25.6965 25.3311 25.5737 25.3311 25.4456C25.3311 25.3175 25.3819 25.1947 25.4725 25.1041C25.5631 25.0136 25.6859 24.9627 25.814 24.9627H38.7013C38.8293 24.9627 38.9522 25.0136 39.0427 25.1041C39.1333 25.1947 39.1842 25.3175 39.1842 25.4456C39.1842 25.5737 39.1333 25.6965 39.0427 25.787C38.9522 25.8776 38.8293 25.9285 38.7013 25.9285ZM38.7013 29.5076H25.814C25.6859 29.5076 25.5631 29.4567 25.4725 29.3662C25.3819 29.2756 25.3311 29.1528 25.3311 29.0247C25.3311 28.8966 25.3819 28.7738 25.4725 28.6832C25.5631 28.5927 25.6859 28.5418 25.814 28.5418H38.7013C38.8293 28.5418 38.9522 28.5927 39.0427 28.6832C39.1333 28.7738 39.1842 28.8966 39.1842 29.0247C39.1842 29.1528 39.1333 29.2756 39.0427 29.3662C38.9522 29.4567 38.8293 29.5076 38.7013 29.5076ZM38.7013 33.0867H25.814C25.6859 33.0867 25.5631 33.0358 25.4725 32.9453C25.3819 32.8547 25.3311 32.7319 25.3311 32.6038C25.3311 32.4757 25.3819 32.3529 25.4725 32.2623C25.5631 32.1718 25.6859 32.1209 25.814 32.1209H38.7013C38.8293 32.1209 38.9522 32.1718 39.0427 32.2623C39.1333 32.3529 39.1842 32.4757 39.1842 32.6038C39.1842 32.7319 39.1333 32.8547 39.0427 32.9453C38.9522 33.0358 38.8293 33.0867 38.7013 33.0867Z" fill="#B5ADB6"/>
</svg>
