<svg width="154" height="40" viewBox="0 0 154 40" fill="none" xmlns="http://www.w3.org/2000/svg">
<path d="M30.9688 30.8154L30.9688 15.4854C30.9688 6.93328 24.0359 0.000437786 15.4838 0.00043667C6.93171 0.000435554 -0.00113363 6.93328 -0.00113476 15.4854L-0.00113678 30.8154L30.9688 30.8154Z" fill="#7A5AF8"/>
<path d="M6.51892 30.8115C6.51892 25.7358 10.6543 21.6211 15.7556 21.6211C20.8568 21.6211 24.9922 25.7358 24.9922 30.8115L6.51892 30.8115Z" fill="#FE3278"/>
<path d="M6.51893 30.8086C6.51892 35.8843 10.6543 39.999 15.7556 39.999C20.8568 39.999 24.9922 35.8843 24.9922 30.8086L6.51893 30.8086Z" fill="#FCD451"/>
<path d="M15.4832 18.3799C18.0211 18.3799 20.1016 16.3225 20.1016 13.7847C20.1016 11.2468 18.0211 9.18945 15.4832 9.18945C12.9454 9.18945 10.8649 11.2468 10.8649 13.7847C10.8649 16.3225 12.9454 18.3799 15.4832 18.3799Z" fill="#FAFAFF"/>
<path d="M41.1668 27.5L45.7928 14.09H48.9608L53.5868 27.5H50.9228L49.9688 24.62H44.7848L43.8128 27.5H41.1668ZM45.4868 22.46H49.2668L47.0348 15.782H47.7188L45.4868 22.46ZM59.0836 27.716C58.1356 27.716 57.2896 27.494 56.5456 27.05C55.8016 26.594 55.2136 25.976 54.7816 25.196C54.3496 24.416 54.1336 23.552 54.1336 22.604C54.1336 21.644 54.3496 20.78 54.7816 20.012C55.2136 19.244 55.8016 18.632 56.5456 18.176C57.3016 17.72 58.1416 17.492 59.0656 17.492C59.8096 17.492 60.4696 17.642 61.0456 17.942C61.6336 18.23 62.0956 18.638 62.4316 19.166L62.0716 19.652V13.874H64.4296V27.5H62.1976V25.61L62.4496 26.078C62.1136 26.606 61.6456 27.014 61.0456 27.302C60.4456 27.578 59.7916 27.716 59.0836 27.716ZM59.3356 25.556C59.8756 25.556 60.3496 25.43 60.7576 25.178C61.1656 24.926 61.4836 24.578 61.7116 24.134C61.9516 23.69 62.0716 23.18 62.0716 22.604C62.0716 22.04 61.9516 21.536 61.7116 21.092C61.4836 20.636 61.1656 20.282 60.7576 20.03C60.3496 19.778 59.8756 19.652 59.3356 19.652C58.8076 19.652 58.3336 19.784 57.9136 20.048C57.4936 20.3 57.1636 20.648 56.9236 21.092C56.6956 21.524 56.5816 22.028 56.5816 22.604C56.5816 23.18 56.6956 23.69 56.9236 24.134C57.1636 24.578 57.4936 24.926 57.9136 25.178C58.3336 25.43 58.8076 25.556 59.3356 25.556ZM66.6234 27.5V17.708H68.8374V19.976L68.5854 19.598C68.7654 18.89 69.1254 18.362 69.6654 18.014C70.2054 17.666 70.8414 17.492 71.5734 17.492C72.3774 17.492 73.0854 17.702 73.6974 18.122C74.3094 18.542 74.7054 19.094 74.8854 19.778L74.2194 19.832C74.5194 19.052 74.9694 18.47 75.5694 18.086C76.1694 17.69 76.8594 17.492 77.6394 17.492C78.3354 17.492 78.9534 17.648 79.4934 17.96C80.0454 18.272 80.4774 18.71 80.7894 19.274C81.1014 19.826 81.2574 20.468 81.2574 21.2V27.5H78.8994V21.758C78.8994 21.326 78.8214 20.954 78.6654 20.642C78.5094 20.33 78.2934 20.09 78.0174 19.922C77.7414 19.742 77.4054 19.652 77.0094 19.652C76.6374 19.652 76.3074 19.742 76.0194 19.922C75.7314 20.09 75.5094 20.33 75.3534 20.642C75.1974 20.954 75.1194 21.326 75.1194 21.758V27.5H72.7614V21.758C72.7614 21.326 72.6834 20.954 72.5274 20.642C72.3714 20.33 72.1494 20.09 71.8614 19.922C71.5854 19.742 71.2554 19.652 70.8714 19.652C70.4994 19.652 70.1694 19.742 69.8814 19.922C69.5934 20.09 69.3714 20.33 69.2154 20.642C69.0594 20.954 68.9814 21.326 68.9814 21.758V27.5H66.6234ZM83.2523 27.5V17.708H85.6103V27.5H83.2523ZM83.2523 16.61V14.09H85.6103V16.61H83.2523ZM87.7875 27.5V17.708H90.0015V19.634L89.8215 19.292C90.0495 18.704 90.4215 18.26 90.9375 17.96C91.4655 17.648 92.0775 17.492 92.7735 17.492C93.4935 17.492 94.1295 17.648 94.6815 17.96C95.2455 18.272 95.6835 18.71 95.9955 19.274C96.3075 19.826 96.4635 20.468 96.4635 21.2V27.5H94.1055V21.758C94.1055 21.326 94.0215 20.954 93.8535 20.642C93.6855 20.33 93.4515 20.09 93.1515 19.922C92.8635 19.742 92.5215 19.652 92.1255 19.652C91.7415 19.652 91.3995 19.742 91.0995 19.922C90.7995 20.09 90.5655 20.33 90.3975 20.642C90.2295 20.954 90.1455 21.326 90.1455 21.758V27.5H87.7875ZM101.855 27.5V14.09H106.859C107.771 14.09 108.575 14.258 109.271 14.594C109.979 14.918 110.531 15.398 110.927 16.034C111.323 16.658 111.521 17.42 111.521 18.32C111.521 19.208 111.317 19.97 110.909 20.606C110.513 21.23 109.967 21.71 109.271 22.046C108.575 22.382 107.771 22.55 106.859 22.55H104.303V27.5H101.855ZM104.303 20.39H106.895C107.339 20.39 107.723 20.306 108.047 20.138C108.371 19.958 108.623 19.712 108.803 19.4C108.983 19.088 109.073 18.728 109.073 18.32C109.073 17.9 108.983 17.54 108.803 17.24C108.623 16.928 108.371 16.688 108.047 16.52C107.723 16.34 107.339 16.25 106.895 16.25H104.303V20.39ZM115.718 27.716C115.034 27.716 114.44 27.602 113.936 27.374C113.432 27.146 113.042 26.822 112.766 26.402C112.49 25.97 112.352 25.472 112.352 24.908C112.352 24.368 112.472 23.888 112.712 23.468C112.952 23.036 113.324 22.676 113.828 22.388C114.332 22.1 114.968 21.896 115.736 21.776L118.94 21.254V23.054L116.186 23.522C115.718 23.606 115.37 23.756 115.142 23.972C114.914 24.188 114.8 24.47 114.8 24.818C114.8 25.154 114.926 25.424 115.178 25.628C115.442 25.82 115.766 25.916 116.15 25.916C116.642 25.916 117.074 25.814 117.446 25.61C117.83 25.394 118.124 25.1 118.328 24.728C118.544 24.356 118.652 23.948 118.652 23.504V20.984C118.652 20.564 118.484 20.216 118.148 19.94C117.824 19.652 117.392 19.508 116.852 19.508C116.348 19.508 115.898 19.646 115.502 19.922C115.118 20.186 114.836 20.54 114.656 20.984L112.73 20.048C112.922 19.532 113.222 19.088 113.63 18.716C114.05 18.332 114.542 18.032 115.106 17.816C115.67 17.6 116.282 17.492 116.942 17.492C117.746 17.492 118.454 17.642 119.066 17.942C119.678 18.23 120.152 18.638 120.488 19.166C120.836 19.682 121.01 20.288 121.01 20.984V27.5H118.778V25.826L119.282 25.79C119.03 26.21 118.73 26.564 118.382 26.852C118.034 27.128 117.638 27.344 117.194 27.5C116.75 27.644 116.258 27.716 115.718 27.716ZM123.19 27.5V17.708H125.404V19.634L125.224 19.292C125.452 18.704 125.824 18.26 126.34 17.96C126.868 17.648 127.48 17.492 128.176 17.492C128.896 17.492 129.532 17.648 130.084 17.96C130.648 18.272 131.086 18.71 131.398 19.274C131.71 19.826 131.866 20.468 131.866 21.2V27.5H129.508V21.758C129.508 21.326 129.424 20.954 129.256 20.642C129.088 20.33 128.854 20.09 128.554 19.922C128.266 19.742 127.924 19.652 127.528 19.652C127.144 19.652 126.802 19.742 126.502 19.922C126.202 20.09 125.968 20.33 125.8 20.642C125.632 20.954 125.548 21.326 125.548 21.758V27.5H123.19ZM138.504 27.716C137.496 27.716 136.614 27.488 135.858 27.032C135.102 26.576 134.514 25.958 134.094 25.178C133.674 24.398 133.464 23.534 133.464 22.586C133.464 21.602 133.674 20.732 134.094 19.976C134.526 19.208 135.108 18.602 135.84 18.158C136.584 17.714 137.412 17.492 138.324 17.492C139.092 17.492 139.764 17.618 140.34 17.87C140.928 18.122 141.426 18.47 141.834 18.914C142.242 19.358 142.554 19.868 142.77 20.444C142.986 21.008 143.094 21.62 143.094 22.28C143.094 22.448 143.082 22.622 143.058 22.802C143.046 22.982 143.016 23.138 142.968 23.27H135.408V21.47H141.636L140.52 22.316C140.628 21.764 140.598 21.272 140.43 20.84C140.274 20.408 140.01 20.066 139.638 19.814C139.278 19.562 138.84 19.436 138.324 19.436C137.832 19.436 137.394 19.562 137.01 19.814C136.626 20.054 136.332 20.414 136.128 20.894C135.936 21.362 135.864 21.932 135.912 22.604C135.864 23.204 135.942 23.738 136.146 24.206C136.362 24.662 136.674 25.016 137.082 25.268C137.502 25.52 137.982 25.646 138.522 25.646C139.062 25.646 139.518 25.532 139.89 25.304C140.274 25.076 140.574 24.77 140.79 24.386L142.698 25.322C142.506 25.79 142.206 26.204 141.798 26.564C141.39 26.924 140.904 27.206 140.34 27.41C139.788 27.614 139.176 27.716 138.504 27.716ZM144.881 27.5V13.874H147.239V27.5H144.881Z" fill="#18181B"/>
</svg>
