<svg width="24" height="24" viewBox="0 0 24 24" fill="none" xmlns="http://www.w3.org/2000/svg">
<path d="M3 11.25H9C9.59649 11.2492 10.1683 11.0119 10.5901 10.5901C11.0119 10.1683 11.2492 9.59649 11.25 9V3C11.2492 2.40351 11.0119 1.83167 10.5901 1.40989C10.1683 0.988102 9.59649 0.750794 9 0.75H3C2.40351 0.750794 1.83167 0.988102 1.40989 1.40989C0.988102 1.83167 0.750794 2.40351 0.75 3V9C0.750794 9.59649 0.988102 10.1683 1.40989 10.5901C1.83167 11.0119 2.40351 11.2492 3 11.25ZM2.25 3C2.25 2.80109 2.32902 2.61032 2.46967 2.46967C2.61032 2.32902 2.80109 2.25 3 2.25H9C9.19891 2.25 9.38968 2.32902 9.53033 2.46967C9.67098 2.61032 9.75 2.80109 9.75 3V9C9.75 9.19891 9.67098 9.38968 9.53033 9.53033C9.38968 9.67098 9.19891 9.75 9 9.75H3C2.80109 9.75 2.61032 9.67098 2.46967 9.53033C2.32902 9.38968 2.25 9.19891 2.25 9V3ZM3 23.25H9C9.59649 23.2492 10.1683 23.0119 10.5901 22.5901C11.0119 22.1683 11.2492 21.5965 11.25 21V15C11.2492 14.4035 11.0119 13.8317 10.5901 13.4099C10.1683 12.9881 9.59649 12.7508 9 12.75H3C2.40351 12.7508 1.83167 12.9881 1.40989 13.4099C0.988102 13.8317 0.750794 14.4035 0.75 15V21C0.750794 21.5965 0.988102 22.1683 1.40989 22.5901C1.83167 23.0119 2.40351 23.2492 3 23.25ZM2.25 15C2.25 14.8011 2.32902 14.6103 2.46967 14.4697C2.61032 14.329 2.80109 14.25 3 14.25H9C9.19891 14.25 9.38968 14.329 9.53033 14.4697C9.67098 14.6103 9.75 14.8011 9.75 15V21C9.75 21.1989 9.67098 21.3897 9.53033 21.5303C9.38968 21.671 9.19891 21.75 9 21.75H3C2.80109 21.75 2.61032 21.671 2.46967 21.5303C2.32902 21.3897 2.25 21.1989 2.25 21V15ZM21 0.75H15C14.4035 0.750794 13.8317 0.988102 13.4099 1.40989C12.9881 1.83167 12.7508 2.40351 12.75 3V9C12.7508 9.59649 12.9881 10.1683 13.4099 10.5901C13.8317 11.0119 14.4035 11.2492 15 11.25H21C21.5965 11.2492 22.1683 11.0119 22.5901 10.5901C23.0119 10.1683 23.2492 9.59649 23.25 9V3C23.2492 2.40351 23.0119 1.83167 22.5901 1.40989C22.1683 0.988102 21.5965 0.750794 21 0.75ZM21.75 9C21.75 9.19891 21.671 9.38968 21.5303 9.53033C21.3897 9.67098 21.1989 9.75 21 9.75H15C14.8011 9.75 14.6103 9.67098 14.4697 9.53033C14.329 9.38968 14.25 9.19891 14.25 9V3C14.25 2.80109 14.329 2.61032 14.4697 2.46967C14.6103 2.32902 14.8011 2.25 15 2.25H21C21.1989 2.25 21.3897 2.32902 21.5303 2.46967C21.671 2.61032 21.75 2.80109 21.75 3V9ZM18 12.75C16.9616 12.75 15.9466 13.0579 15.0833 13.6348C14.2199 14.2117 13.547 15.0316 13.1496 15.9909C12.7523 16.9502 12.6483 18.0058 12.8509 19.0242C13.0534 20.0426 13.5535 20.9781 14.2877 21.7123C15.0219 22.4465 15.9574 22.9466 16.9758 23.1491C17.9942 23.3517 19.0498 23.2477 20.0091 22.8504C20.9684 22.453 21.7883 21.7801 22.3652 20.9167C22.9421 20.0534 23.25 19.0384 23.25 18C23.2484 16.6081 22.6948 15.2737 21.7106 14.2894C20.7263 13.3052 19.3919 12.7516 18 12.75ZM18 21.75C17.2583 21.75 16.5333 21.5301 15.9166 21.118C15.2999 20.706 14.8193 20.1203 14.5355 19.4351C14.2516 18.7498 14.1774 17.9958 14.3221 17.2684C14.4667 16.541 14.8239 15.8728 15.3483 15.3484C15.8728 14.8239 16.541 14.4668 17.2684 14.3221C17.9958 14.1774 18.7498 14.2516 19.4351 14.5355C20.1203 14.8193 20.706 15.2999 21.118 15.9166C21.5301 16.5333 21.75 17.2583 21.75 18C21.7488 18.9942 21.3533 19.9473 20.6503 20.6503C19.9473 21.3533 18.9942 21.7488 18 21.75Z" fill="#376DA4"/>
</svg>
