<svg width="31" height="40" viewBox="0 0 31 40" fill="none" xmlns="http://www.w3.org/2000/svg">
<path d="M30.97 30.8164L30.97 15.4864C30.97 6.93426 24.0371 0.00141435 15.485 0.00141323C6.93293 0.00141212 8.70708e-05 6.93426 8.59437e-05 15.4864L8.39233e-05 30.8164L30.97 30.8164Z" fill="#7A5AF8"/>
<path d="M6.5199 30.8115C6.5199 25.7358 10.6553 21.6211 15.7565 21.6211C20.8578 21.6211 24.9932 25.7358 24.9932 30.8115L6.5199 30.8115Z" fill="#FE3278"/>
<path d="M6.5199 30.8096C6.5199 35.8853 10.6553 40 15.7565 40C20.8578 40 24.9932 35.8853 24.9932 30.8096L6.5199 30.8096Z" fill="#FCD451"/>
<path d="M15.485 18.3789C18.0228 18.3789 20.1033 16.3216 20.1033 13.7837C20.1033 11.2458 18.0228 9.18847 15.485 9.18847C12.9471 9.18847 10.8666 11.2458 10.8666 13.7837C10.8666 16.3216 12.9471 18.3789 15.485 18.3789Z" fill="#FAFAFF"/>
</svg>
