<svg width="60" height="61" viewBox="0 0 60 61" fill="none" xmlns="http://www.w3.org/2000/svg">
<path opacity="0.21" fill-rule="evenodd" clip-rule="evenodd" d="M0.916016 30.5V37.5C0.916016 50.2025 11.2135 60.5 23.916 60.5H30.458H37C49.7025 60.5 60 50.2025 60 37.5V30.5V23.5C60 10.7975 49.7025 0.5 37 0.5H30.458H23.916C11.2135 0.5 0.916016 10.7975 0.916016 23.5V30.5Z" fill="#8280FF" fill-opacity="0.4"/>
<g clip-path="url(#clip0_340_2295)">
<path d="M41.1726 44.5193C38.8016 44.5193 36.8816 43.8003 36.8816 42.9102V45.0557C36.8816 45.9459 38.8016 46.6648 41.1726 46.6648C43.5435 46.6648 45.4637 45.9459 45.4637 45.0557V42.9102C45.4637 43.8003 43.5435 44.5193 41.1726 44.5193Z" fill="#FF9811"/>
<path d="M41.1726 40.2302C38.8016 40.2302 36.8816 39.5113 36.8816 38.6211V40.7666C36.8816 41.6568 38.8016 42.3758 41.1726 42.3758C43.5435 42.3758 45.4637 41.6568 45.4637 40.7666V38.6211C45.4637 39.5113 43.5435 40.2302 41.1726 40.2302Z" fill="#FFA733"/>
<path d="M41.1726 38.0857C38.8016 38.0857 36.8816 37.3668 36.8816 36.4766V38.6221C36.8816 39.5123 38.8016 40.2312 41.1726 40.2312C43.5435 40.2312 45.4637 39.5123 45.4637 38.6221V36.4766C45.4637 37.3668 43.5435 38.0857 41.1726 38.0857ZM41.1726 42.3768C38.8016 42.3768 36.8816 41.6578 36.8816 40.7676V42.9131C36.8816 43.8033 38.8016 44.5223 41.1726 44.5223C43.5435 44.5223 45.4637 43.8033 45.4637 42.9131V40.7676C45.4637 41.6578 43.5435 42.3768 41.1726 42.3768Z" fill="#FFB655"/>
<path d="M41.1726 31.6482C38.8016 31.6482 36.8816 30.9293 36.8816 30.0391V32.1846C36.8816 33.0748 38.8016 33.7937 41.1726 33.7937C43.5435 33.7937 45.4637 33.0748 45.4637 32.1846V30.0391C45.4637 30.9293 43.5435 31.6482 41.1726 31.6482ZM41.1726 35.9393C38.8016 35.9393 36.8816 35.2203 36.8816 34.3301V36.4756C36.8816 37.3658 38.8016 38.0848 41.1726 38.0848C43.5435 38.0848 45.4637 37.3658 45.4637 36.4756V34.3301C45.4637 35.2203 43.5435 35.9393 41.1726 35.9393Z" fill="#FFC477"/>
<path d="M41.1726 33.7947C38.8016 33.7947 36.8816 33.0758 36.8816 32.1856V34.3311C36.8816 35.2213 38.8016 35.9403 41.1726 35.9403C43.5435 35.9403 45.4637 35.2213 45.4637 34.3311V32.1856C45.4637 33.0758 43.5435 33.7947 41.1726 33.7947ZM41.1726 29.5037C38.803 29.5037 36.8816 28.7832 36.8816 27.8945V30.0401C36.8816 30.9303 38.8016 31.6492 41.1726 31.6492C43.5435 31.6492 45.4637 30.9303 45.4637 30.0401V27.8945C45.4637 28.7832 43.5424 29.5037 41.1726 29.5037Z" fill="#FFB655"/>
<path d="M18.6446 46.6648C21.0154 46.6648 22.9356 45.9459 22.9356 45.0557V42.9102C22.9356 43.8003 21.0154 44.5193 18.6446 44.5193C16.2736 44.5193 14.3535 43.8003 14.3535 42.9102V45.0557C14.3535 45.9459 16.2736 46.6648 18.6446 46.6648Z" fill="#FF6243"/>
<path d="M29.9087 42.3748C27.5377 42.3748 25.6177 41.6558 25.6177 40.7656V42.9112C25.6177 43.8013 27.5377 44.5203 29.9087 44.5203C32.2795 44.5203 34.1998 43.8013 34.1998 42.9112V40.7656C34.1998 41.6558 32.2795 42.3748 29.9087 42.3748Z" fill="#FFA733"/>
<path d="M29.9087 40.2302C27.5377 40.2302 25.6177 39.5113 25.6177 38.6211V40.7666C25.6177 41.6568 27.5377 42.3758 29.9087 42.3758C32.2795 42.3758 34.1998 41.6568 34.1998 40.7666V38.6211C34.1998 39.5113 32.2795 40.2302 29.9087 40.2302Z" fill="#FF9811"/>
<path d="M29.9087 35.9373C27.5391 35.9373 25.6177 35.2168 25.6177 34.3281V36.4737C25.6177 37.3638 27.5377 38.0828 29.9087 38.0828C32.2795 38.0828 34.1998 37.3638 34.1998 36.4737V34.3281C34.1998 35.2168 32.2785 35.9373 29.9087 35.9373Z" fill="#FFB655"/>
<path d="M29.9087 38.0857C27.5377 38.0857 25.6177 37.3668 25.6177 36.4766V38.6221C25.6177 39.5123 27.5377 40.2312 29.9087 40.2312C32.2795 40.2312 34.1998 39.5123 34.1998 38.6221V36.4766C34.1998 37.3668 32.2795 38.0857 29.9087 38.0857Z" fill="#FFA733"/>
<path d="M18.6446 44.5203C21.0154 44.5203 22.9356 43.8013 22.9356 42.9112V40.7656C22.9356 41.6558 21.0154 42.3748 18.6446 42.3748C16.2736 42.3748 14.3535 41.6558 14.3535 40.7656V42.9112C14.3535 43.8013 16.2736 44.5203 18.6446 44.5203Z" fill="#FF9478"/>
<path d="M18.6446 42.3758C21.0154 42.3758 22.9356 41.6568 22.9356 40.7666V38.6211C22.9356 39.5097 21.0143 40.2302 18.6446 40.2302C16.2748 40.2302 14.3535 39.5097 14.3535 38.6211V40.7666C14.3535 41.6568 16.2736 42.3758 18.6446 42.3758Z" fill="#FF7956"/>
<path d="M29.9087 44.5193C27.5377 44.5193 25.6177 43.8003 25.6177 42.9102V45.0557C25.6177 45.9459 27.5377 46.6648 29.9087 46.6648C32.2795 46.6648 34.1998 45.9459 34.1998 45.0557V42.9102C34.1998 43.8003 32.2795 44.5193 29.9087 44.5193Z" fill="#FF9811"/>
<path d="M22.9356 38.6209C22.9356 37.7322 21.0143 37.0117 18.6446 37.0117C16.2746 37.0117 14.3535 37.7322 14.3535 38.6209C14.3535 39.5095 16.2746 40.23 18.6446 40.23C21.0143 40.23 22.9356 39.5095 22.9356 38.6209Z" fill="#FF9478"/>
<path d="M34.1998 34.3309C34.1998 33.4422 32.2785 32.7217 29.9087 32.7217C27.5388 32.7217 25.6177 33.4422 25.6177 34.3309C25.6177 35.2195 27.5388 35.94 29.9087 35.94C32.2785 35.94 34.1998 35.2195 34.1998 34.3309ZM45.4638 27.8943C45.4638 27.0057 43.5425 26.2852 41.1727 26.2852C38.8028 26.2852 36.8817 27.0057 36.8817 27.8943C36.8817 28.783 38.8028 29.5034 41.1727 29.5034C43.5425 29.5034 45.4638 28.783 45.4638 27.8943Z" fill="#FFA733"/>
<path d="M40.0999 15.0195V16.0923H44.1689L33.9776 26.2835H22.734L14 33.9254L14.7069 34.7331L23.1373 27.3563H34.4218L44.9273 16.8507V20.9197H46.0001V15.0195H40.0999Z" fill="#5EAC24"/>
</g>
<defs>
<clipPath id="clip0_340_2295">
<rect width="32" height="32" fill="white" transform="translate(14 15)"/>
</clipPath>
</defs>
</svg>
