<svg width="60" height="61" viewBox="0 0 60 61" fill="none" xmlns="http://www.w3.org/2000/svg">
<path opacity="0.21" fill-rule="evenodd" clip-rule="evenodd" d="M0.916016 30.5V37.5C0.916016 50.2025 11.2135 60.5 23.916 60.5H30.458H37C49.7025 60.5 60 50.2025 60 37.5V30.5V23.5C60 10.7975 49.7025 0.5 37 0.5H30.458H23.916C11.2135 0.5 0.916016 10.7975 0.916016 23.5V30.5Z" fill="#8280FF" fill-opacity="0.6"/>
<g clip-path="url(#clip0_340_2126)">
<path d="M43.1875 32H33.8125C32.2616 32 31 33.2616 31 34.8125V44.1875C31 45.7384 32.2616 47 33.8125 47H43.1875C44.7384 47 46 45.7384 46 44.1875V34.8125C46 33.2616 44.7384 32 43.1875 32ZM26.1875 15H16.8125C15.2616 15 14 16.2616 14 17.8125V27.1875C14 28.7384 15.2616 30 16.8125 30H26.1875C27.7384 30 29 28.7384 29 27.1875V17.8125C29 16.2616 27.7384 15 26.1875 15Z" fill="url(#paint0_linear_340_2126)"/>
<path d="M19.8997 25.9753C20.0828 26.1584 20.3227 26.25 20.5625 26.25C20.8023 26.25 21.0423 26.1584 21.2253 25.9753L24.9753 22.2253C25.3415 21.8591 25.3415 21.2658 24.9753 20.8996C24.6091 20.5334 24.0158 20.5334 23.6496 20.8996L20.5625 23.9868L19.3503 22.7746C18.9841 22.4084 18.3908 22.4084 18.0246 22.7746C17.6584 23.1408 17.6584 23.7341 18.0246 24.1003L19.8997 25.9753ZM26.1875 32H16.8125C15.2616 32 14 33.2616 14 34.8125V44.1875C14 45.7384 15.2616 47 16.8125 47H26.1875C27.7384 47 29 45.7384 29 44.1875V34.8125C29 33.2616 27.7384 32 26.1875 32ZM43.1875 15H33.8125C32.2616 15 31 16.2616 31 17.8125V27.1875C31 28.7384 32.2616 30 33.8125 30H43.1875C44.7384 30 46 28.7384 46 27.1875V17.8125C46 16.2616 44.7384 15 43.1875 15ZM40.6497 37.8997L37.5625 40.9868L36.3503 39.7746C35.9841 39.4084 35.3908 39.4084 35.0246 39.7746C34.6584 40.1408 34.6584 40.7341 35.0246 41.1003L36.8996 42.9753C37.0828 43.1584 37.3226 43.25 37.5624 43.25C37.8022 43.25 38.0422 43.1584 38.2253 42.9753L41.9753 39.2253C42.3414 38.8591 42.3414 38.2658 41.9753 37.8996C41.6091 37.5334 41.0159 37.5334 40.6497 37.8997Z" fill="url(#paint1_linear_340_2126)"/>
</g>
<defs>
<linearGradient id="paint0_linear_340_2126" x1="30" y1="47" x2="30" y2="15" gradientUnits="userSpaceOnUse">
<stop stop-color="#5558FF"/>
<stop offset="1" stop-color="#00C0FF"/>
</linearGradient>
<linearGradient id="paint1_linear_340_2126" x1="30" y1="47" x2="30" y2="15" gradientUnits="userSpaceOnUse">
<stop stop-color="#ADDCFF"/>
<stop offset="0.503" stop-color="#EAF6FF"/>
<stop offset="1" stop-color="#EAF6FF"/>
</linearGradient>
<clipPath id="clip0_340_2126">
<rect width="32" height="32" fill="white" transform="translate(14 15)"/>
</clipPath>
</defs>
</svg>
