<svg width="60" height="61" viewBox="0 0 60 61" fill="none" xmlns="http://www.w3.org/2000/svg">
<path opacity="0.4" fill-rule="evenodd" clip-rule="evenodd" d="M0.916016 30.5V37.5C0.916016 50.2025 11.2135 60.5 23.916 60.5H30.458H37C49.7025 60.5 60 50.2025 60 37.5V30.5V23.5C60 10.7975 49.7025 0.5 37 0.5H30.458H23.916C11.2135 0.5 0.916016 10.7975 0.916016 23.5V30.5Z" fill="#FFF500" fill-opacity="0.5"/>
<g clip-path="url(#clip0_340_1694)">
<path d="M34.6083 36.5729L34.8075 35.8654L31.5188 28.316L30.7998 27.6804C30.6816 27.5649 30.5611 27.4516 30.4386 27.3406C29.8568 26.9208 28.6134 25.5823 26.8755 25.5823L26.2165 25.0391H22.7796L22.2082 25.5823C20.4682 25.5823 19.4638 26.7348 18.6468 27.3415C17.0439 28.8329 15.3099 30.9646 14.9549 33.4827L14.0481 39.3438C13.6711 41.781 15.5564 43.9803 18.0226 43.9803H31.0612C33.5266 43.9803 35.4116 41.7822 35.0359 39.3456L34.6083 36.5729Z" fill="#B0EFA5"/>
<path d="M28.1144 17.9782L25.8643 17.5312L25.5418 22.5489L25.8028 22.9601H26.7442L26.9528 22.598L28.5574 18.5116C28.6092 18.2343 28.3964 17.9782 28.1144 17.9782ZM22.3976 22.9601H23.2423L23.5418 22.5489L23.1719 17.5312L20.9692 17.9782C20.6871 17.9782 20.4743 18.2344 20.5261 18.5116L22.1307 22.598L22.3976 22.9601Z" fill="#7FD394"/>
<path d="M24.5441 15.6758C23.8804 15.6758 22.6665 15.8625 22.788 16.5135L23.542 22.5507L23.8936 22.962H25.2486L25.542 22.5507L26.2959 16.5135C26.4179 15.8595 25.2106 15.6758 24.5441 15.6758Z" fill="#B0EFA5"/>
<path d="M17.0644 39.3436L17.9709 33.4824C18.3259 30.9643 20.0599 28.8326 21.6629 27.3412C22.4798 26.7345 23.4843 25.582 25.2243 25.582H22.2081C20.4681 25.582 19.4636 26.7345 18.6467 27.3412C17.0437 28.8326 15.3098 30.9643 14.9548 33.4824L14.0481 39.3436C13.6711 41.7808 15.5564 43.9801 18.0226 43.9801H21.0388C18.5726 43.9801 16.6874 41.7808 17.0644 39.3436Z" fill="#7FD394"/>
<path d="M44.8955 39.6973H31.6255C31.0155 39.6973 30.521 39.2028 30.521 38.5928C30.521 37.9828 31.0155 37.4883 31.6255 37.4883H44.8955C45.5055 37.4883 46 37.9828 46 38.5928C46 39.2028 45.5055 39.6973 44.8955 39.6973Z" fill="#FEE07D"/>
<path d="M32.9133 38.776H45.9849C45.995 38.7155 46.0001 38.6542 46.0001 38.5928C46.0001 37.9828 45.5055 37.4883 44.8955 37.4883H31.6255C31.0155 37.4883 30.521 37.9828 30.521 38.5928C30.521 39.2028 31.0155 39.6973 31.6255 39.6973H31.8239C31.9112 39.1745 32.3657 38.776 32.9133 38.776Z" fill="#FFCF64"/>
<path d="M44.8955 41.9043H31.6255C31.0155 41.9043 30.521 41.4098 30.521 40.7998C30.521 40.1898 31.0155 39.6953 31.6255 39.6953H44.8955C45.5055 39.6953 46 40.1898 46 40.7998C46 41.4098 45.5055 41.9043 44.8955 41.9043Z" fill="#FEE07D"/>
<path d="M32.9133 40.9831H45.9849C45.995 40.9225 46.0001 40.8612 46.0001 40.7998C46.0001 40.1898 45.5055 39.6953 44.8955 39.6953H31.6255C31.0155 39.6953 30.521 40.1898 30.521 40.7998C30.521 41.4098 31.0155 41.9043 31.6255 41.9043H31.8239C31.9112 41.3815 32.3657 40.9831 32.9133 40.9831Z" fill="#FFCF64"/>
<path d="M44.8948 46.3223H31.6248C31.0148 46.3223 30.5203 45.8278 30.5203 45.2178C30.5203 44.6078 31.0148 44.1133 31.6248 44.1133H44.8947C45.5048 44.1133 45.9993 44.6078 45.9993 45.2178C45.9993 45.8279 45.5048 46.3223 44.8948 46.3223Z" fill="#FEE07D"/>
<path d="M32.9125 45.401H45.9841C45.9942 45.3405 45.9993 45.2792 45.9993 45.2178C45.9993 44.6078 45.5048 44.1133 44.8947 44.1133H31.6248C31.0148 44.1133 30.5203 44.6078 30.5203 45.2178C30.5203 45.8278 31.0148 46.3223 31.6248 46.3223H31.8232C31.9105 45.7995 32.365 45.401 32.9125 45.401Z" fill="#FFCF64"/>
<path d="M44.8948 44.1153H31.6248C31.0148 44.1153 30.5203 43.6208 30.5203 43.0108C30.5203 42.4008 31.0148 41.9062 31.6248 41.9062H44.8947C45.5048 41.9062 45.9993 42.4008 45.9993 43.0108C45.9993 43.6208 45.5048 44.1153 44.8948 44.1153Z" fill="#FEE07D"/>
<path d="M32.9125 43.194H45.9841C45.9942 43.1335 45.9993 43.0722 45.9993 43.0108C45.9993 42.4008 45.5048 41.9062 44.8947 41.9062H31.6248C31.0148 41.9062 30.5203 42.4008 30.5203 43.0108C30.5203 43.6208 31.0148 44.1153 31.6248 44.1153H31.8232C31.9105 43.5925 32.365 43.194 32.9125 43.194Z" fill="#FFCF64"/>
<path d="M38.2602 37.4867C42.5346 37.4867 45.9997 34.0217 45.9997 29.7473C45.9997 25.4729 42.5346 22.0078 38.2602 22.0078C33.9858 22.0078 30.5208 25.4729 30.5208 29.7473C30.5208 34.0217 33.9858 37.4867 38.2602 37.4867Z" fill="#FEE07D"/>
<path d="M31.8085 29.7473C31.8085 25.6897 34.9309 22.3614 38.9041 22.0342C38.6918 22.0167 38.477 22.0078 38.2602 22.0078C33.9858 22.0078 30.5208 25.4729 30.5208 29.7473C30.5208 34.0216 33.9859 37.4867 38.2602 37.4867C38.477 37.4867 38.6918 37.4778 38.9041 37.4604C34.9309 37.1332 31.8085 33.8049 31.8085 29.7473Z" fill="#FFCF64"/>
<path d="M26.6096 25.5819H22.474C21.8026 25.5819 21.2583 25.0377 21.2583 24.3662V23.7665C21.2583 23.0951 21.8026 22.5508 22.474 22.5508H26.6096C27.281 22.5508 27.8253 23.095 27.8253 23.7665V24.3662C27.8253 25.0376 27.2811 25.5819 26.6096 25.5819Z" fill="#857E87"/>
<path d="M23.8337 24.3662V23.7665C23.8337 23.0951 24.378 22.5508 25.0494 22.5508H22.4739C21.8026 22.5508 21.2583 23.095 21.2583 23.7665V24.3662C21.2583 25.0376 21.8026 25.5818 22.4739 25.5818H25.0494C24.3781 25.5819 23.8337 25.0376 23.8337 24.3662Z" fill="#6F6571"/>
<path d="M35.9331 28.299C35.9331 29.3631 36.7987 30.2287 37.8627 30.2287H38.6574C39.1889 30.2287 39.6212 30.6611 39.6212 31.1925C39.6212 31.724 39.1889 32.1563 38.6574 32.1563H37.7611C37.3943 32.1563 37.077 31.9203 36.9716 31.569C36.9337 31.4477 36.8494 31.3463 36.7372 31.2867C36.6249 31.2271 36.4937 31.2142 36.372 31.2507C36.2502 31.2872 36.1478 31.3702 36.0869 31.4818C36.026 31.5933 36.0115 31.7244 36.0466 31.8465C36.2754 32.6095 36.9645 33.1222 37.761 33.1222H37.7772V34.1649C37.7772 34.2929 37.828 34.4157 37.9186 34.5063C38.0091 34.5969 38.132 34.6477 38.26 34.6477C38.3881 34.6477 38.5109 34.5969 38.6015 34.5063C38.692 34.4157 38.7429 34.2929 38.7429 34.1649V33.1202C39.7674 33.0753 40.587 32.2278 40.587 31.1925C40.587 30.1285 39.7214 29.2629 38.6574 29.2629H37.8627C37.3313 29.2629 36.8989 28.8305 36.8989 28.299C36.8989 27.7676 37.3313 27.3352 37.8627 27.3352H38.5727C38.9395 27.3352 39.2569 27.5712 39.3622 27.9225C39.4002 28.0438 39.4845 28.1452 39.5967 28.2048C39.709 28.2644 39.8402 28.2773 39.9619 28.2408C40.0836 28.2043 40.1861 28.1212 40.247 28.0097C40.3079 27.8982 40.3224 27.7671 40.2873 27.645C40.0749 26.9369 39.4662 26.4445 38.743 26.3772V25.3266C38.743 25.1986 38.6922 25.0757 38.6016 24.9852C38.511 24.8946 38.3882 24.8438 38.2602 24.8438C38.1321 24.8438 38.0093 24.8946 37.9187 24.9852C37.8282 25.0757 37.7773 25.1986 37.7773 25.3266V26.3712C36.7527 26.4161 35.9331 27.2637 35.9331 28.299ZM24.5418 29.8776C24.4784 29.8776 24.4156 29.8901 24.357 29.9144C24.2984 29.9386 24.2452 29.9742 24.2003 30.019C24.1555 30.0639 24.1199 30.1171 24.0957 30.1757C24.0714 30.2343 24.0589 30.2971 24.0589 30.3605V31.4051C23.0345 31.45 22.2148 32.2975 22.2148 33.3328C22.2148 34.3968 23.0805 35.2624 24.1445 35.2624H24.9392C25.4706 35.2624 25.903 35.6948 25.903 36.2263C25.903 36.7578 25.4706 37.1901 24.9392 37.1901H24.0429C23.676 37.1901 23.3587 36.9541 23.2534 36.6028C23.2351 36.542 23.2051 36.4855 23.165 36.4363C23.125 36.3872 23.0756 36.3464 23.0197 36.3163C22.9639 36.2863 22.9027 36.2675 22.8396 36.2611C22.7765 36.2547 22.7128 36.2608 22.652 36.279C22.5913 36.2972 22.5347 36.3272 22.4856 36.3673C22.4365 36.4074 22.3957 36.4568 22.3656 36.5126C22.3356 36.5685 22.3168 36.6297 22.3104 36.6928C22.304 36.7559 22.3101 36.8196 22.3283 36.8803C22.5572 37.6433 23.2462 38.156 24.0428 38.156H24.0589V39.1987C24.0589 39.3267 24.1097 39.4496 24.2003 39.5401C24.2909 39.6307 24.4137 39.6816 24.5417 39.6816C24.6698 39.6816 24.7926 39.6307 24.8832 39.5401C24.9738 39.4496 25.0246 39.3267 25.0246 39.1987V38.1541C26.0491 38.1092 26.8688 37.2617 26.8688 36.2264C26.8688 35.1624 26.0031 34.2967 24.9391 34.2967H24.1444C23.613 34.2967 23.1806 33.8644 23.1806 33.3329C23.1806 32.8015 23.613 32.3691 24.1444 32.3691H24.8544C25.2212 32.3691 25.5385 32.6052 25.6439 32.9565C25.6819 33.0778 25.7661 33.1792 25.8784 33.2388C25.9906 33.2983 26.1218 33.3113 26.2436 33.2747C26.3653 33.2382 26.4677 33.1552 26.5286 33.0436C26.5895 32.9321 26.604 32.8011 26.569 32.6789C26.3566 31.9708 25.7479 31.4784 25.0247 31.4111V30.3606C25.0247 30.2325 24.9738 30.1097 24.8833 30.0191C24.7927 29.9285 24.6699 29.8776 24.5418 29.8776Z" fill="#857E87"/>
</g>
<defs>
<clipPath id="clip0_340_1694">
<rect width="32" height="32" fill="white" transform="translate(14 15)"/>
</clipPath>
</defs>
</svg>
