<svg width="756" height="645" viewBox="0 0 756 645" fill="none" xmlns="http://www.w3.org/2000/svg">
<g clip-path="url(#clip0_418_7364)">
<g style="mix-blend-mode:lighten">
<path d="M377.992 378.379C375.525 378.379 373.171 377.866 371.377 376.825L222.711 290.984C220.789 289.879 219.731 288.293 219.731 286.499C219.731 284.449 221.173 282.431 223.704 280.973L370.384 196.285C374.868 193.691 381.467 193.434 385.391 195.709L534.057 281.55C535.979 282.655 537.036 284.241 537.036 286.035C537.036 288.085 535.595 290.103 533.064 291.561L386.384 376.249C383.95 377.658 380.891 378.363 377.992 378.363V378.379ZM372.53 374.839C375.717 376.681 381.531 376.409 385.247 374.262L531.927 289.575C533.689 288.55 534.746 287.236 534.746 286.051C534.746 284.865 533.753 284.048 532.92 283.568L384.254 197.727C381.083 195.901 375.253 196.157 371.537 198.304L224.857 282.991C223.095 284.016 222.038 285.33 222.038 286.515C222.038 287.701 223.031 288.518 223.864 288.998L372.53 374.839Z" fill="#8686F2"/>
</g>
<path opacity="0.5" d="M203.491 388.246C203.091 388.246 202.706 388.038 202.498 387.67C202.178 387.125 202.37 386.42 202.915 386.1L296.836 331.879C297.381 331.558 298.085 331.75 298.406 332.295C298.726 332.84 298.534 333.544 297.989 333.865L204.068 388.086C203.892 388.198 203.683 388.246 203.491 388.246Z" fill="url(#paint0_linear_418_7364)"/>
<path opacity="0.5" d="M553.069 387.942C552.877 387.942 552.669 387.893 552.493 387.781L459.116 333.864C458.571 333.544 458.379 332.839 458.699 332.295C459.02 331.734 459.724 331.558 460.269 331.878L553.646 385.795C554.19 386.115 554.383 386.82 554.062 387.365C553.854 387.733 553.47 387.942 553.069 387.942Z" fill="url(#paint1_linear_418_7364)"/>
<path opacity="0.5" d="M378.008 569.058C374.212 569.058 370.432 568.081 367.068 566.127C328.789 543.942 201.312 470.227 198.253 468.881C197.645 468.705 197.34 468.08 197.516 467.472C197.693 466.863 198.365 466.527 198.99 466.703C200.976 467.279 366.54 563.164 368.221 564.141C374.26 567.633 381.771 567.633 387.826 564.141L556.208 466.527C556.753 466.206 557.458 466.398 557.778 466.943C558.098 467.488 557.906 468.192 557.362 468.513L388.979 566.127C385.599 568.081 381.803 569.058 378.008 569.058Z" fill="url(#paint2_linear_418_7364)"/>
<path d="M535.884 223.452V241.696L378.008 332.855L220.116 241.696V223.452H535.884Z" fill="url(#paint3_linear_418_7364)"/>
<path d="M378.008 314.611L220.116 223.452L377.992 132.293L535.884 223.452L378.008 314.611Z" fill="#BCBEFF"/>
<path d="M378.008 312.48L221.974 222.395L220.116 223.452L378.008 314.611L535.884 223.452L534.042 222.395L378.008 312.48Z" fill="white"/>
<path d="M378.008 293.595L256.57 223.468L377.992 153.357L499.43 223.484L378.008 293.595Z" fill="#0F054C"/>
<path opacity="0.5" d="M378.008 293.595L256.57 223.468L377.992 153.357L499.43 223.484L378.008 293.595Z" fill="url(#paint4_linear_418_7364)"/>
<path opacity="0.5" d="M377.992 135.673L499.43 205.8V223.484L377.992 153.357V135.673Z" fill="url(#paint5_linear_418_7364)"/>
<path opacity="0.5" d="M378.008 153.357L256.57 223.468V205.8L377.992 135.673L378.008 153.357Z" fill="url(#paint6_linear_418_7364)"/>
<path opacity="0.5" d="M378.008 275.911L256.57 205.8L377.992 135.673L499.43 205.8L378.008 275.911Z" fill="url(#paint7_linear_418_7364)"/>
<path opacity="0.5" d="M378.008 233.815L329.478 205.8L378.008 177.784L426.522 205.8L378.008 233.815Z" fill="#42E8E0"/>
<path opacity="0.5" d="M378.008 180.363L424.296 207.081L426.522 205.8L378.008 177.784L329.478 205.8L331.704 207.081L378.008 180.363Z" fill="#42E8E0"/>
<path opacity="0.5" d="M378.008 275.911V293.595L499.43 223.484V205.8L378.008 275.911Z" fill="url(#paint8_linear_418_7364)"/>
<path opacity="0.5" d="M256.57 205.8V223.468L378.008 293.595V275.911L256.57 205.8Z" fill="url(#paint9_linear_418_7364)"/>
<path opacity="0.8" d="M378.008 273.989L258.236 204.823L256.57 205.8L378.008 275.911L499.43 205.8L497.764 204.839L378.008 273.989Z" fill="#42E8E0"/>
<g opacity="0.11">
<path d="M144.454 352.99C138.095 349.322 130.263 349.322 123.904 352.99L1.44149 423.534C-0.480498 424.639 -0.480498 427.426 1.44149 428.548L124.914 499.844C130.519 503.08 137.439 503.08 143.044 499.844L266.709 428.612C268.631 427.506 268.631 424.719 266.709 423.598L144.438 353.006L144.454 352.99Z" fill="url(#paint10_linear_418_7364)"/>
</g>
<g opacity="0.11">
<path d="M144.454 332.359C138.095 328.691 130.263 328.691 123.904 332.359L1.44149 402.903C-0.480498 404.008 -0.480498 406.795 1.44149 407.916L124.914 479.213C130.519 482.448 137.439 482.448 143.044 479.213L266.709 407.98C268.631 406.875 268.631 404.088 266.709 402.967L144.438 332.375L144.454 332.359Z" fill="url(#paint11_linear_418_7364)"/>
</g>
<g opacity="0.11">
<path d="M144.454 311.728C138.095 308.06 130.263 308.06 123.904 311.728L1.44149 382.271C-0.480498 383.377 -0.480498 386.164 1.44149 387.285L124.914 458.581C130.519 461.817 137.439 461.817 143.044 458.581L266.709 387.349C268.631 386.244 268.631 383.457 266.709 382.335L144.438 311.744L144.454 311.728Z" fill="url(#paint12_linear_418_7364)"/>
</g>
<g opacity="0.11">
<path d="M144.454 291.096C138.095 287.428 130.263 287.428 123.904 291.096L1.44149 361.64C-0.480498 362.745 -0.480498 365.532 1.44149 366.654L124.914 437.95C130.519 441.186 137.439 441.186 143.044 437.95L266.709 366.718C268.631 365.612 268.631 362.825 266.709 361.704L144.438 291.112L144.454 291.096Z" fill="url(#paint13_linear_418_7364)"/>
</g>
<path opacity="0.5" d="M266.725 361.704L144.454 291.112C138.095 287.444 130.263 287.444 123.904 291.112L1.44149 361.64C0.480498 362.185 0 363.162 0 364.139V405.626C0 406.603 0.480498 407.58 1.44149 408.124L124.914 479.421C130.519 482.657 137.439 482.657 143.044 479.421L266.709 408.189C267.67 407.628 268.15 406.651 268.15 405.69V364.203C268.15 363.226 267.67 362.249 266.709 361.704H266.725Z" fill="url(#paint14_linear_418_7364)"/>
<g opacity="0.11">
<path d="M144.454 291.096C138.095 287.428 130.263 287.428 123.904 291.096L1.44149 361.64C-0.480498 362.745 -0.480498 365.532 1.44149 366.654L124.914 437.95C130.519 441.186 137.439 441.186 143.044 437.95L266.709 366.718C268.631 365.612 268.631 362.825 266.709 361.704L144.438 291.112L144.454 291.096Z" fill="url(#paint15_linear_418_7364)"/>
</g>
<g opacity="0.5">
<path d="M138.48 331.542C135.789 329.988 132.473 329.988 129.767 331.542L74.8938 363.145C74.0289 363.642 74.0289 364.891 74.8938 365.388L129.991 397.2C132.49 398.642 135.581 398.642 138.079 397.2L193.257 365.42C194.121 364.923 194.121 363.674 193.257 363.177L138.48 331.542Z" fill="#42E8E0"/>
</g>
<path d="M74.9095 365.132L129.782 333.528C132.473 331.974 135.805 331.974 138.495 333.528L193.272 365.164C193.272 365.164 193.352 365.26 193.4 365.292C194.105 364.747 194.073 363.642 193.272 363.177L138.495 331.542C135.805 329.988 132.489 329.988 129.782 331.542L74.9095 363.145C74.1087 363.61 74.0767 364.699 74.7814 365.26C74.8295 365.228 74.8455 365.164 74.9095 365.132Z" fill="#42E8E0"/>
<path d="M266.724 363.867L143.06 435.099C137.454 438.335 130.535 438.335 124.929 435.099L1.44141 363.787C0.960914 363.514 0.608548 363.13 0.368299 362.713C-0.368465 364.027 -0.0160995 365.805 1.44141 366.638L124.913 437.934C130.519 441.17 137.438 441.17 143.044 437.934L266.708 366.702C268.166 365.869 268.518 364.075 267.782 362.777C267.541 363.21 267.189 363.578 266.708 363.851L266.724 363.867Z" fill="url(#paint16_linear_418_7364)"/>
<g opacity="0.11">
<path d="M632.287 352.99C625.929 349.322 618.097 349.322 611.738 352.99L489.291 423.534C487.369 424.639 487.369 427.426 489.291 428.548L612.763 499.844C618.369 503.08 625.288 503.08 630.894 499.844L754.558 428.612C756.48 427.506 756.48 424.719 754.558 423.598L632.287 353.006V352.99Z" fill="url(#paint17_linear_418_7364)"/>
</g>
<g opacity="0.11">
<path d="M632.287 332.359C625.929 328.691 618.097 328.691 611.738 332.359L489.291 402.903C487.369 404.008 487.369 406.795 489.291 407.916L612.763 479.213C618.369 482.448 625.288 482.448 630.894 479.213L754.558 407.98C756.48 406.875 756.48 404.088 754.558 402.967L632.287 332.375V332.359Z" fill="url(#paint18_linear_418_7364)"/>
</g>
<g opacity="0.11">
<path d="M632.287 311.728C625.929 308.06 618.097 308.06 611.738 311.728L489.291 382.271C487.369 383.377 487.369 386.164 489.291 387.285L612.763 458.581C618.369 461.817 625.288 461.817 630.894 458.581L754.558 387.349C756.48 386.244 756.48 383.457 754.558 382.335L632.287 311.744V311.728Z" fill="url(#paint19_linear_418_7364)"/>
</g>
<g opacity="0.11">
<path d="M632.287 291.096C625.929 287.428 618.097 287.428 611.738 291.096L489.291 361.64C487.369 362.745 487.369 365.532 489.291 366.654L612.763 437.95C618.369 441.186 625.288 441.186 630.894 437.95L754.558 366.718C756.48 365.612 756.48 362.825 754.558 361.704L632.287 291.112V291.096Z" fill="url(#paint20_linear_418_7364)"/>
</g>
<path opacity="0.5" d="M754.558 361.704L632.287 291.112C625.929 287.444 618.097 287.444 611.738 291.112L489.291 361.656C488.33 362.217 487.85 363.194 487.85 364.155V405.642C487.85 406.619 488.33 407.596 489.291 408.141L612.763 479.437C618.369 482.673 625.288 482.673 630.894 479.437L754.558 408.205C755.519 407.644 756 406.667 756 405.706V364.219C756 363.242 755.519 362.265 754.558 361.72V361.704Z" fill="url(#paint21_linear_418_7364)"/>
<g opacity="0.11">
<path d="M632.287 291.096C625.929 287.428 618.097 287.428 611.738 291.096L489.291 361.64C487.369 362.745 487.369 365.532 489.291 366.654L612.763 437.95C618.369 441.186 625.288 441.186 630.894 437.95L754.558 366.718C756.48 365.612 756.48 362.825 754.558 361.704L632.287 291.112V291.096Z" fill="url(#paint22_linear_418_7364)"/>
</g>
<g opacity="0.5">
<path d="M626.313 331.542C623.622 329.988 620.307 329.988 617.6 331.542L562.727 363.145C561.862 363.642 561.862 364.891 562.727 365.388L617.824 397.2C620.323 398.642 623.414 398.642 625.912 397.2L681.09 365.42C681.954 364.923 681.954 363.674 681.09 363.177L626.313 331.542Z" fill="#42E8E0"/>
</g>
<path d="M562.744 365.132L617.616 333.528C620.307 331.974 623.639 331.974 626.329 333.528L681.106 365.164C681.106 365.164 681.186 365.26 681.234 365.292C681.939 364.747 681.907 363.642 681.106 363.177L626.329 331.542C623.639 329.988 620.323 329.988 617.616 331.542L562.744 363.145C561.943 363.61 561.911 364.699 562.615 365.26C562.663 365.228 562.679 365.164 562.744 365.132Z" fill="#42E8E0"/>
<path d="M754.558 363.866L630.894 435.099C625.288 438.334 618.369 438.334 612.763 435.099L489.291 363.802C488.811 363.53 488.458 363.145 488.218 362.729C487.481 364.042 487.833 365.82 489.291 366.653L612.763 437.95C618.369 441.186 625.288 441.186 630.894 437.95L754.558 366.718C756.016 365.885 756.368 364.091 755.631 362.793C755.391 363.226 755.039 363.594 754.558 363.866Z" fill="url(#paint23_linear_418_7364)"/>
<g opacity="0.11">
<path d="M367.741 504.666C373.715 501.222 381.083 501.206 387.057 504.666L502.185 570.98C503.995 572.022 503.995 574.649 502.185 575.69L386.096 642.725C380.827 645.769 374.324 645.769 369.055 642.725L252.79 575.754C250.98 574.713 250.98 572.086 252.79 571.045L367.741 504.666Z" fill="url(#paint24_linear_418_7364)"/>
</g>
<g opacity="0.11">
<path d="M367.741 485.268C373.715 481.824 381.083 481.808 387.057 485.268L502.185 551.582C503.995 552.624 503.995 555.251 502.185 556.292L386.096 623.327C380.827 626.371 374.324 626.371 369.055 623.327L252.79 556.356C250.98 555.315 250.98 552.688 252.79 551.647L367.741 485.268Z" fill="url(#paint25_linear_418_7364)"/>
</g>
<g opacity="0.11">
<path d="M367.741 465.87C373.715 462.426 381.083 462.41 387.057 465.87L502.185 532.185C503.995 533.226 503.995 535.853 502.185 536.894L386.096 603.93C380.827 606.973 374.324 606.973 369.055 603.93L252.79 536.958C250.98 535.917 250.98 533.29 252.79 532.249L367.741 465.87Z" fill="url(#paint26_linear_418_7364)"/>
</g>
<g opacity="0.11">
<path d="M367.741 446.472C373.715 443.028 381.083 443.012 387.057 446.472L502.185 512.787C503.995 513.828 503.995 516.455 502.185 517.496L386.096 584.532C380.827 587.575 374.324 587.575 369.055 584.532L252.79 517.56C250.98 516.519 250.98 513.892 252.79 512.851L367.741 446.472Z" fill="url(#paint27_linear_418_7364)"/>
</g>
<path opacity="0.11" d="M252.79 512.851L367.741 446.472C373.716 443.028 381.083 443.012 387.057 446.472L502.185 512.787C503.098 513.315 503.546 514.228 503.546 515.141V573.335C503.546 574.248 503.098 575.161 502.185 575.69L386.096 642.725C380.827 645.769 374.324 645.769 369.055 642.725L252.79 575.754C251.877 575.225 251.429 574.312 251.429 573.399V515.205C251.429 514.292 251.877 513.379 252.79 512.851Z" fill="url(#paint28_linear_418_7364)"/>
<g opacity="0.11">
<path d="M365.675 398.914C372.914 394.733 381.852 394.733 389.091 398.914L528.692 479.325C530.886 480.59 530.886 483.762 528.692 485.027L387.938 566.303C381.547 570.003 373.667 570.003 367.261 566.303L226.282 485.107C224.088 483.842 224.088 480.67 226.282 479.405L365.675 398.914Z" fill="url(#paint29_linear_418_7364)"/>
</g>
<g opacity="0.11">
<path d="M365.675 375.399C372.914 371.218 381.852 371.218 389.091 375.399L528.692 455.81C530.886 457.075 530.886 460.247 528.692 461.512L387.938 542.788C381.547 546.488 373.667 546.488 367.261 542.788L226.282 461.593C224.088 460.327 224.088 457.155 226.282 455.89L365.675 375.399Z" fill="url(#paint30_linear_418_7364)"/>
</g>
<g opacity="0.11">
<path d="M365.675 351.869C372.914 347.688 381.852 347.688 389.091 351.869L528.692 432.296C530.886 433.561 530.886 436.733 528.692 437.998L387.938 519.274C381.547 522.974 373.667 522.974 367.261 519.274L226.282 438.078C224.088 436.813 224.088 433.641 226.282 432.376L365.675 351.885V351.869Z" fill="url(#paint31_linear_418_7364)"/>
</g>
<g opacity="0.11">
<path d="M365.675 328.354C372.914 324.174 381.852 324.174 389.091 328.354L528.692 408.765C530.886 410.03 530.886 413.202 528.692 414.467L387.938 495.743C381.547 499.443 373.667 499.443 367.261 495.743L226.282 414.548C224.088 413.282 224.088 410.111 226.282 408.845L365.675 328.354Z" fill="url(#paint32_linear_418_7364)"/>
</g>
<path opacity="0.5" d="M226.283 408.845L365.675 328.354C372.915 324.174 381.852 324.174 389.091 328.354L528.692 408.765C529.797 409.406 530.342 410.511 530.342 411.616V482.176C530.342 483.281 529.797 484.402 528.692 485.027L387.938 566.303C381.548 570.003 373.667 570.003 367.261 566.303L226.283 485.107C225.177 484.466 224.633 483.361 224.633 482.256V411.696C224.633 410.591 225.177 409.47 226.283 408.845Z" fill="url(#paint33_linear_418_7364)"/>
<g opacity="0.11">
<path d="M365.675 328.354C372.914 324.174 381.852 324.174 389.091 328.354L528.692 408.765C530.886 410.03 530.886 413.202 528.692 414.467L387.938 495.743C381.547 499.443 373.667 499.443 367.261 495.743L226.282 414.548C224.088 413.282 224.088 410.111 226.282 408.845L365.675 328.354Z" fill="url(#paint34_linear_418_7364)"/>
</g>
<path d="M226.282 411.296L367.261 492.492C373.651 496.192 381.531 496.192 387.938 492.492L528.692 411.216C529.236 410.895 529.637 410.479 529.909 409.982C530.742 411.472 530.342 413.506 528.692 414.467L387.938 495.743C381.547 499.443 373.667 499.443 367.261 495.743L226.282 414.548C224.633 413.586 224.216 411.552 225.065 410.063C225.337 410.543 225.738 410.976 226.282 411.296Z" fill="url(#paint35_linear_418_7364)"/>
<path opacity="0.2" d="M377.479 456.243C419.93 456.243 454.343 436.377 454.343 411.873C454.343 387.368 419.93 367.502 377.479 367.502C335.028 367.502 300.615 387.368 300.615 411.873C300.615 436.377 335.028 456.243 377.479 456.243Z" fill="#180D5B"/>
<path d="M406.742 374.246C406.742 374.246 408.616 376.201 410.554 378.491C412.492 380.782 417.938 383.985 420.228 385.395C422.519 386.821 433.009 394.766 435.204 402.598C437.398 410.431 429.902 411.472 422.23 410.111C414.558 408.749 407.399 401.669 405.317 399.123C403.235 396.576 395.979 390.777 386.561 385.892C377.16 381.022 382.845 374.471 382.845 374.471L406.758 374.23L406.742 374.246Z" fill="#160A5B"/>
<path d="M336.878 397.504C336.878 397.504 335.324 401.028 334.892 405.561C334.459 410.095 333.818 419.914 333.578 422.781C333.338 425.648 333.242 432.68 338.303 439.408C343.364 446.135 345.975 448.794 352.686 446.151C359.397 443.508 359.253 432.232 358.068 426.433C356.882 420.634 355.777 407.66 355.889 406.298C356.017 404.937 355.505 404.072 355.505 404.072L336.878 397.52V397.504Z" fill="#160A5B"/>
<path d="M429.918 241.2C429.918 241.2 428.509 292.907 416.448 320.362C416.448 320.362 407.815 344.533 406.678 373.285C406.678 373.285 408.664 378.235 405.845 382.255C403.026 386.276 385.328 389.96 382.413 376.745C379.498 363.53 380.619 338.782 383.822 328.467C387.041 318.151 382.685 289.719 382.685 289.719C382.685 289.719 377.848 292.811 371.505 313.234C365.163 333.657 360.502 341.457 358.324 347.096C356.145 352.734 354.143 387.365 355.521 404.264C355.521 404.264 341.202 406.299 337.054 399.443C332.905 392.587 331.528 357.171 332.569 345.862C333.626 334.57 338.335 298.385 337.694 287.188C337.038 275.992 334.715 266.893 337.278 255.713C339.841 244.532 415.423 219.688 415.423 219.688L429.902 241.184L429.918 241.2Z" fill="#24126A"/>
<path d="M337.71 287.22C337.053 276.023 334.731 266.925 337.294 255.745C338.255 251.548 349.546 245.413 363.24 239.39C386.368 237.276 415.711 234.825 417.729 235.129C419.555 235.402 424.344 237.228 428.3 238.813L429.918 241.216C429.918 241.216 429.838 244.356 429.517 249.497C424.12 251.115 413.741 249.449 413.741 249.449C412.283 253.086 403.266 265.98 392.054 271.538C380.843 277.097 348.041 275.19 346.151 277.305C344.261 279.419 343.908 307.723 344.117 311.327C344.325 314.931 341.025 337.581 337.982 357.62C334.987 377.338 339.552 401.285 339.696 402.054C338.639 401.381 337.71 400.532 337.069 399.459C332.921 392.603 331.544 357.187 332.585 345.878C333.642 334.586 338.351 298.401 337.71 287.204V287.22Z" fill="#160A5B"/>
<path d="M404.612 72.0811C404.612 72.0811 421.381 75.9094 427.019 77.2389C427.948 77.4632 428.717 78.1199 429.07 79.0169C430.703 83.1336 434.787 95.948 431.712 114.657C427.932 137.643 429.134 153.133 429.134 153.133L436.886 193.514C436.886 193.514 446.64 231.974 445.791 233.015C444.942 234.072 423.336 250.523 416.577 248.2C409.818 245.877 412.044 242.065 412.044 242.065C412.044 242.065 406.566 269.936 382.349 269.664C358.132 269.392 338.335 269.472 334.235 259.685C330.119 249.898 335.356 208.731 339.633 192.425C343.909 176.135 354.064 143.634 354.064 143.634L318.587 104.358L348.906 81.1954C348.906 81.1954 356.146 67.7402 359.125 66.0263C362.104 64.3123 363.658 65.77 363.658 65.77L404.628 72.0811H404.612Z" fill="#453C9E"/>
<path d="M416.16 239.31C416.144 240.704 416.961 242.786 421.301 244.292C426.01 245.909 437.526 238.893 445.086 233.624C441.306 236.763 422.743 250.314 416.576 248.2C415.231 247.735 414.254 247.223 413.533 246.678C414.911 243.571 415.743 240.896 416.16 239.326V239.31Z" fill="url(#paint36_linear_418_7364)"/>
<path d="M334.411 256.401C338.751 266.733 359.637 266.653 385.2 266.941C391.702 267.005 396.924 265.163 401.088 262.36C396.667 266.573 390.597 269.744 382.365 269.648C358.147 269.376 338.351 269.456 334.251 259.669C332.905 256.449 332.569 249.85 332.857 241.857C332.793 248.344 333.242 253.598 334.427 256.401H334.411Z" fill="url(#paint37_linear_418_7364)"/>
<path d="M359.765 65.6899C359.765 65.6899 353.567 73.1863 362.488 83.2937C367.966 89.5248 377.415 102.948 385.456 116.9C390.485 125.614 395.114 130.259 397.756 137.739C397.756 137.739 398.125 128.849 398.477 115.122C398.814 102.163 398.99 88.7078 398.413 85.312C397.212 78.3281 366.636 62.294 359.781 65.6899H359.765Z" fill="#F0F6FF"/>
<path d="M382.941 88.2435C382.941 88.2435 386.112 90.2137 387.201 90.0535C388.29 89.8933 391.814 86.4815 391.814 86.4815C391.814 86.4815 400.607 86.3213 401.568 82.5571C402.529 78.7928 403.154 74.9965 404.051 73.0423C404.948 71.0881 408.728 61.6855 408.76 57.8732C408.792 54.0609 408.647 47.2532 410.297 43.6331C411.947 40.0291 414.157 3.94034 379.321 4.94948C344.469 5.97463 355.296 42.1595 355.296 42.1595C355.296 42.1595 352.749 43.2487 354.287 47.8939C355.825 52.5552 356.177 53.0357 356.962 55.3424C357.747 57.649 358.131 59.1386 360.357 61.0128L360.934 65.3056C360.934 65.3056 359.284 71.857 363.609 78.2322C367.933 84.6074 382.941 88.2435 382.941 88.2435Z" fill="#FCD1C5"/>
<path d="M427.98 77.6553C427.98 77.6553 431.696 78.2159 443.757 108.538C450.484 125.469 460.862 142.993 463.073 155.567C465.267 168.141 464.05 181.597 461.567 182.542C459.181 183.455 415.856 199.665 402.306 204.775C401.553 205.063 400.736 204.583 400.608 203.798L396.876 182.878L423.752 172.498C423.752 172.498 428.877 166.235 433.682 163.897C433.682 163.897 428.301 153.965 428.637 151.258C428.973 148.551 428.156 120.488 431.312 109.067C434.467 97.6458 428.012 77.6553 428.012 77.6553H427.98Z" fill="#24126A"/>
<path d="M412.252 157.81C412.252 157.81 415.952 155.327 416.865 154.975C417.778 154.622 422.727 152.924 423.672 152.508C424.376 152.188 427.259 152.428 428.701 152.588C429.23 152.636 429.678 152.94 429.934 153.405C431.071 155.519 434.259 161.702 433.906 164.057C433.906 164.057 424.953 169.711 423.96 172.226L422.535 172.531C422.535 172.531 416.544 159.668 412.252 157.81Z" fill="#FCD1C5"/>
<path d="M339.632 192.409C340.657 188.485 342.035 183.631 343.508 178.505L397.949 201.844C397.949 201.844 381.66 221.882 353.102 220.601C345.286 220.248 339.6 217.429 335.42 215.011C336.685 206.105 338.207 197.855 339.648 192.409H339.632Z" fill="#24126A"/>
<path d="M318.57 104.357C318.57 104.357 332.921 106.328 344.517 124.716C356.113 143.105 364.57 164.377 364.57 164.377L364.971 166.764C366.012 173.011 372.675 176.599 378.473 174.02C390.725 168.558 408.856 160.277 412.236 157.794C412.236 157.794 423.079 163.784 426.042 177.96C428.396 189.253 427.804 189.301 427.804 189.301C427.804 189.301 379.466 211.871 360.79 211.647C342.115 211.422 318.442 150.041 315.832 137.355C313.221 124.668 310.354 107.945 318.57 104.357Z" fill="#24126A"/>
<path d="M318.57 104.357C318.57 104.357 332.921 106.328 344.517 124.716C356.113 143.105 364.57 164.377 364.57 164.377L364.971 166.764C366.012 173.011 372.675 176.599 378.473 174.02C390.725 168.558 408.856 160.277 412.236 157.794C412.236 157.794 423.079 163.784 426.042 177.96C428.396 189.253 427.804 189.301 427.804 189.301C427.804 189.301 379.466 211.871 360.79 211.647C342.115 211.422 318.442 150.041 315.832 137.355C313.221 124.668 310.354 107.945 318.57 104.357Z" fill="#4846A5"/>
<path d="M371.537 176.887C371.537 176.887 365.435 182.59 362.792 179.466C360.134 176.343 360.918 175.99 360.918 175.99C360.918 175.99 355.425 175.942 354.768 172.498C354.095 169.054 351.404 170.881 351.244 167.052C351.084 163.224 355.681 164.009 355.681 164.009L371.537 176.887Z" fill="#453C9E"/>
<path d="M378.905 173.828C378.905 173.828 377.223 172.274 375.061 170.432C372.899 168.606 369.407 161.03 368.815 160.357C368.222 159.684 360.934 154.094 357.411 153.998C353.887 153.902 356.498 157.842 357.315 158.387C358.131 158.931 361.559 160.645 361.559 160.645C361.559 160.645 365.099 163.609 365.499 164.041C365.9 164.474 355.681 163.336 354.063 164.329C352.446 165.323 352.814 167.934 353.967 168.654C355.104 169.359 355.985 169.343 355.985 169.343C355.985 169.343 354.832 172.419 357.907 173.844C360.966 175.27 361.687 174.485 361.687 174.485C361.687 174.485 361.943 179.803 367.021 178.746L378.937 173.812L378.905 173.828Z" fill="#FCD1C5"/>
<path d="M411.066 25.1643C411.066 25.1643 415.615 39.6446 403.65 35.528C391.686 31.4113 380.843 24.5075 377.079 27.1345C374.212 29.1368 374.34 35.2557 374.58 38.0748C374.66 39.0359 374.404 39.981 373.859 40.7819L370.304 45.9397C369.903 46.5164 369.663 47.2052 369.615 47.9099L369.359 51.498C369.295 52.395 368.574 53.1158 367.661 53.1639L366.844 53.2119C365.931 53.26 365.13 52.6193 364.97 51.7223L364.041 46.4523C364.041 46.4523 361.222 39.3563 355.264 42.1434C355.264 42.1434 351.276 36.7934 352.605 25.3405C353.935 13.8875 359.06 2.00213 381.515 0.0959779C403.971 -1.81017 411.05 25.1643 411.05 25.1643H411.066Z" fill="#AA8383"/>
<path d="M376.759 100.978L380.122 98.3667C380.122 98.3667 383.23 100.946 384.447 103.685C385.664 106.424 384.447 115.122 384.447 115.122L385.472 116.884L386.737 114.577L387.794 104.277C387.794 104.277 386.657 96.6688 386.545 96.4766C386.433 96.2844 380.058 97.1494 380.058 97.1494C380.058 97.1494 377.848 98.8313 376.775 100.946L376.759 100.978Z" fill="#C4CCD6"/>
<path d="M392.904 90.7422C392.904 90.7422 396.491 90.9825 398.109 92.328C398.109 92.328 394.345 92.5202 393.737 92.5843C393.144 92.6483 392.888 90.7422 392.888 90.7422H392.904Z" fill="#C4CCD6"/>
<path d="M386.064 91.5431L380.042 97.1815C380.042 97.1815 385.327 99.6162 386.817 104.342C386.817 104.342 393.368 105.559 393.976 103.188C394.569 100.818 393.96 94.8268 394.745 92.1838C395.53 89.5248 386.08 91.5431 386.08 91.5431H386.064Z" fill="#24126A"/>
<path d="M393.721 103.06C393.721 103.06 394.842 107.994 396.059 110.028C397.276 112.063 398.542 114.353 398.542 114.353L398.397 143.266C398.397 143.266 387.762 121.337 385.456 116.9C385.456 116.9 385.808 106.344 386.817 104.342C387.826 102.34 393.737 103.06 393.737 103.06H393.721Z" fill="#24126A"/>
<path d="M365.163 60.3241C372.146 80.4749 391.798 86.4656 391.798 86.4656C391.798 86.4656 388.291 89.8775 387.186 90.0377C386.097 90.1978 382.925 88.2276 382.925 88.2276C382.925 88.2276 367.918 84.5915 363.593 78.2163C359.269 71.8411 360.918 65.2897 360.918 65.2897L360.342 60.9969C363.465 62.022 365.163 60.3081 365.163 60.3081V60.3241Z" fill="#E2B1A6"/>
<path d="M349.178 83.9185C349.178 83.9185 351.933 93.4332 352.285 93.7856C352.637 94.138 359.22 93.3851 359.22 93.3851L356.033 99.44C356.033 99.44 389.123 134.92 395.978 154.014C395.978 154.014 380.33 129.826 352.765 100.93L356.657 95.035L349.899 96.3485L349.178 83.9345V83.9185Z" fill="#24126A"/>
<path d="M403.522 75.5249L405.284 77.5272L403.218 79.4493L409.336 84.9756C409.336 84.9756 411.21 123.787 403.73 149.496C403.73 149.496 413.869 125.918 411.578 83.9184L404.964 79.4333L407.126 77.3029L403.522 75.5249Z" fill="#24126A"/>
<path d="M382.685 289.719C382.685 289.719 382.605 289.767 382.46 289.895L391.029 280.765C387.073 286.339 391.638 311.888 392.102 317.734C392.583 323.581 387.522 335.659 385.632 349.819C383.742 363.947 387.618 384.129 387.618 384.193C385.167 382.768 383.213 380.413 382.412 376.745C379.481 363.53 380.619 338.782 383.822 328.466C387.041 318.151 382.685 289.719 382.685 289.719Z" fill="#160A5B"/>
<path d="M360.806 211.647C342.131 211.422 318.458 150.041 315.847 137.355C315.415 135.24 314.966 133.014 314.582 130.739C314.646 130.931 319.483 144.178 324.144 155.92C328.837 167.757 353.791 203.622 366.54 205.96C378.04 208.075 419.395 188.757 427.403 184.944C428.124 189.253 427.819 189.301 427.819 189.301C427.819 189.301 379.481 211.871 360.806 211.647Z" fill="url(#paint38_linear_418_7364)"/>
<path d="M366.86 53.2118C365.947 53.2598 365.146 52.6191 364.986 51.7221L364.057 46.4521C364.057 46.4521 361.238 39.3561 355.28 42.1433C355.28 42.1433 351.516 37.0655 352.541 26.2373C359.156 36.1845 373.859 40.7657 373.859 40.7657L370.304 45.9235C369.903 46.5002 369.663 47.189 369.615 47.8937L369.359 51.4818C369.295 52.3788 368.574 53.0996 367.661 53.1477L366.844 53.1957L366.86 53.2118Z" fill="#936D6D"/>
</g>
<defs>
<linearGradient id="paint0_linear_418_7364" x1="202.338" y1="359.974" x2="298.55" y2="359.974" gradientUnits="userSpaceOnUse">
<stop stop-color="#5761D7"/>
<stop offset="0.07" stop-color="#5471D8"/>
<stop offset="0.28" stop-color="#4D9BDA"/>
<stop offset="0.48" stop-color="#48BDDD"/>
<stop offset="0.67" stop-color="#44D4DE"/>
<stop offset="0.85" stop-color="#42E3DF"/>
<stop offset="1" stop-color="#42E8E0"/>
</linearGradient>
<linearGradient id="paint1_linear_418_7364" x1="458.539" y1="359.814" x2="554.222" y2="359.814" gradientUnits="userSpaceOnUse">
<stop stop-color="#42E8E0"/>
<stop offset="0.15" stop-color="#42E3DF"/>
<stop offset="0.33" stop-color="#44D4DE"/>
<stop offset="0.52" stop-color="#48BDDD"/>
<stop offset="0.72" stop-color="#4D9BDA"/>
<stop offset="0.93" stop-color="#5471D8"/>
<stop offset="1" stop-color="#5761D7"/>
</linearGradient>
<linearGradient id="paint2_linear_418_7364" x1="197.468" y1="517.704" x2="557.938" y2="517.704" gradientUnits="userSpaceOnUse">
<stop stop-color="#5761D7"/>
<stop offset="0.07" stop-color="#5471D8"/>
<stop offset="0.28" stop-color="#4D9BDA"/>
<stop offset="0.48" stop-color="#48BDDD"/>
<stop offset="0.67" stop-color="#44D4DE"/>
<stop offset="0.85" stop-color="#42E3DF"/>
<stop offset="1" stop-color="#42E8E0"/>
</linearGradient>
<linearGradient id="paint3_linear_418_7364" x1="142.051" y1="278.153" x2="546.679" y2="278.153" gradientUnits="userSpaceOnUse">
<stop stop-color="#5761D7"/>
<stop offset="0.16" stop-color="#5E67D9"/>
<stop offset="0.41" stop-color="#7179E1"/>
<stop offset="0.69" stop-color="#9197EE"/>
<stop offset="1" stop-color="#BCBEFF"/>
</linearGradient>
<linearGradient id="paint4_linear_418_7364" x1="256.57" y1="223.484" x2="499.43" y2="223.484" gradientUnits="userSpaceOnUse">
<stop stop-color="#42E8E0"/>
<stop offset="0.15" stop-color="#42E3DF"/>
<stop offset="0.33" stop-color="#44D4DE"/>
<stop offset="0.52" stop-color="#48BDDD"/>
<stop offset="0.72" stop-color="#4D9BDA"/>
<stop offset="0.93" stop-color="#5471D8"/>
<stop offset="1" stop-color="#5761D7"/>
</linearGradient>
<linearGradient id="paint5_linear_418_7364" x1="377.992" y1="179.578" x2="499.43" y2="179.578" gradientUnits="userSpaceOnUse">
<stop stop-color="#42E8E0"/>
<stop offset="0.15" stop-color="#42E3DF"/>
<stop offset="0.33" stop-color="#44D4DE"/>
<stop offset="0.52" stop-color="#48BDDD"/>
<stop offset="0.72" stop-color="#4D9BDA"/>
<stop offset="0.93" stop-color="#5471D8"/>
<stop offset="1" stop-color="#5761D7"/>
</linearGradient>
<linearGradient id="paint6_linear_418_7364" x1="256.57" y1="179.578" x2="378.008" y2="179.578" gradientUnits="userSpaceOnUse">
<stop stop-color="#42E8E0"/>
<stop offset="0.15" stop-color="#42E3DF"/>
<stop offset="0.33" stop-color="#44D4DE"/>
<stop offset="0.52" stop-color="#48BDDD"/>
<stop offset="0.72" stop-color="#4D9BDA"/>
<stop offset="0.93" stop-color="#5471D8"/>
<stop offset="1" stop-color="#5761D7"/>
</linearGradient>
<linearGradient id="paint7_linear_418_7364" x1="256.57" y1="205.8" x2="499.43" y2="205.8" gradientUnits="userSpaceOnUse">
<stop stop-color="#42E8E0"/>
<stop offset="0.15" stop-color="#42E3DF"/>
<stop offset="0.33" stop-color="#44D4DE"/>
<stop offset="0.52" stop-color="#48BDDD"/>
<stop offset="0.72" stop-color="#4D9BDA"/>
<stop offset="0.93" stop-color="#5471D8"/>
<stop offset="1" stop-color="#5761D7"/>
</linearGradient>
<linearGradient id="paint8_linear_418_7364" x1="378.008" y1="249.689" x2="499.43" y2="249.689" gradientUnits="userSpaceOnUse">
<stop stop-color="#42E8E0"/>
<stop offset="0.15" stop-color="#42E3DF"/>
<stop offset="0.33" stop-color="#44D4DE"/>
<stop offset="0.52" stop-color="#48BDDD"/>
<stop offset="0.72" stop-color="#4D9BDA"/>
<stop offset="0.93" stop-color="#5471D8"/>
<stop offset="1" stop-color="#5761D7"/>
</linearGradient>
<linearGradient id="paint9_linear_418_7364" x1="256.57" y1="249.689" x2="378.008" y2="249.689" gradientUnits="userSpaceOnUse">
<stop stop-color="#42E8E0"/>
<stop offset="0.15" stop-color="#42E3DF"/>
<stop offset="0.33" stop-color="#44D4DE"/>
<stop offset="0.52" stop-color="#48BDDD"/>
<stop offset="0.72" stop-color="#4D9BDA"/>
<stop offset="0.93" stop-color="#5471D8"/>
<stop offset="1" stop-color="#5761D7"/>
</linearGradient>
<linearGradient id="paint10_linear_418_7364" x1="0" y1="426.257" x2="268.166" y2="426.257" gradientUnits="userSpaceOnUse">
<stop stop-color="#5761D7"/>
<stop offset="0.07" stop-color="#5471D8"/>
<stop offset="0.28" stop-color="#4D9BDA"/>
<stop offset="0.48" stop-color="#48BDDD"/>
<stop offset="0.67" stop-color="#44D4DE"/>
<stop offset="0.85" stop-color="#42E3DF"/>
<stop offset="1" stop-color="#42E8E0"/>
</linearGradient>
<linearGradient id="paint11_linear_418_7364" x1="0" y1="405.626" x2="268.166" y2="405.626" gradientUnits="userSpaceOnUse">
<stop stop-color="#5761D7"/>
<stop offset="0.07" stop-color="#5471D8"/>
<stop offset="0.28" stop-color="#4D9BDA"/>
<stop offset="0.48" stop-color="#48BDDD"/>
<stop offset="0.67" stop-color="#44D4DE"/>
<stop offset="0.85" stop-color="#42E3DF"/>
<stop offset="1" stop-color="#42E8E0"/>
</linearGradient>
<linearGradient id="paint12_linear_418_7364" x1="0" y1="384.994" x2="268.166" y2="384.994" gradientUnits="userSpaceOnUse">
<stop stop-color="#5761D7"/>
<stop offset="0.07" stop-color="#5471D8"/>
<stop offset="0.28" stop-color="#4D9BDA"/>
<stop offset="0.48" stop-color="#48BDDD"/>
<stop offset="0.67" stop-color="#44D4DE"/>
<stop offset="0.85" stop-color="#42E3DF"/>
<stop offset="1" stop-color="#42E8E0"/>
</linearGradient>
<linearGradient id="paint13_linear_418_7364" x1="0" y1="364.363" x2="268.166" y2="364.363" gradientUnits="userSpaceOnUse">
<stop stop-color="#5761D7"/>
<stop offset="0.07" stop-color="#5471D8"/>
<stop offset="0.28" stop-color="#4D9BDA"/>
<stop offset="0.48" stop-color="#48BDDD"/>
<stop offset="0.67" stop-color="#44D4DE"/>
<stop offset="0.85" stop-color="#42E3DF"/>
<stop offset="1" stop-color="#42E8E0"/>
</linearGradient>
<linearGradient id="paint14_linear_418_7364" x1="0" y1="385.09" x2="268.166" y2="385.09" gradientUnits="userSpaceOnUse">
<stop stop-color="#5761D7"/>
<stop offset="0.07" stop-color="#5471D8"/>
<stop offset="0.28" stop-color="#4D9BDA"/>
<stop offset="0.48" stop-color="#48BDDD"/>
<stop offset="0.67" stop-color="#44D4DE"/>
<stop offset="0.85" stop-color="#42E3DF"/>
<stop offset="1" stop-color="#42E8E0"/>
</linearGradient>
<linearGradient id="paint15_linear_418_7364" x1="0" y1="364.363" x2="268.166" y2="364.363" gradientUnits="userSpaceOnUse">
<stop stop-color="#5761D7"/>
<stop offset="0.07" stop-color="#5471D8"/>
<stop offset="0.28" stop-color="#4D9BDA"/>
<stop offset="0.48" stop-color="#48BDDD"/>
<stop offset="0.67" stop-color="#44D4DE"/>
<stop offset="0.85" stop-color="#42E3DF"/>
<stop offset="1" stop-color="#42E8E0"/>
</linearGradient>
<linearGradient id="paint16_linear_418_7364" x1="-8.28949e-05" y1="401.541" x2="268.166" y2="401.541" gradientUnits="userSpaceOnUse">
<stop stop-color="#5761D7"/>
<stop offset="0.07" stop-color="#5471D8"/>
<stop offset="0.28" stop-color="#4D9BDA"/>
<stop offset="0.48" stop-color="#48BDDD"/>
<stop offset="0.67" stop-color="#44D4DE"/>
<stop offset="0.85" stop-color="#42E3DF"/>
<stop offset="1" stop-color="#42E8E0"/>
</linearGradient>
<linearGradient id="paint17_linear_418_7364" x1="487.834" y1="426.257" x2="756" y2="426.257" gradientUnits="userSpaceOnUse">
<stop stop-color="#5761D7"/>
<stop offset="0.07" stop-color="#5471D8"/>
<stop offset="0.28" stop-color="#4D9BDA"/>
<stop offset="0.48" stop-color="#48BDDD"/>
<stop offset="0.67" stop-color="#44D4DE"/>
<stop offset="0.85" stop-color="#42E3DF"/>
<stop offset="1" stop-color="#42E8E0"/>
</linearGradient>
<linearGradient id="paint18_linear_418_7364" x1="487.834" y1="405.626" x2="756" y2="405.626" gradientUnits="userSpaceOnUse">
<stop stop-color="#5761D7"/>
<stop offset="0.07" stop-color="#5471D8"/>
<stop offset="0.28" stop-color="#4D9BDA"/>
<stop offset="0.48" stop-color="#48BDDD"/>
<stop offset="0.67" stop-color="#44D4DE"/>
<stop offset="0.85" stop-color="#42E3DF"/>
<stop offset="1" stop-color="#42E8E0"/>
</linearGradient>
<linearGradient id="paint19_linear_418_7364" x1="487.834" y1="384.994" x2="756" y2="384.994" gradientUnits="userSpaceOnUse">
<stop stop-color="#5761D7"/>
<stop offset="0.07" stop-color="#5471D8"/>
<stop offset="0.28" stop-color="#4D9BDA"/>
<stop offset="0.48" stop-color="#48BDDD"/>
<stop offset="0.67" stop-color="#44D4DE"/>
<stop offset="0.85" stop-color="#42E3DF"/>
<stop offset="1" stop-color="#42E8E0"/>
</linearGradient>
<linearGradient id="paint20_linear_418_7364" x1="487.834" y1="364.363" x2="756" y2="364.363" gradientUnits="userSpaceOnUse">
<stop stop-color="#5761D7"/>
<stop offset="0.07" stop-color="#5471D8"/>
<stop offset="0.28" stop-color="#4D9BDA"/>
<stop offset="0.48" stop-color="#48BDDD"/>
<stop offset="0.67" stop-color="#44D4DE"/>
<stop offset="0.85" stop-color="#42E3DF"/>
<stop offset="1" stop-color="#42E8E0"/>
</linearGradient>
<linearGradient id="paint21_linear_418_7364" x1="487.834" y1="385.09" x2="756" y2="385.09" gradientUnits="userSpaceOnUse">
<stop stop-color="#5761D7"/>
<stop offset="0.07" stop-color="#5471D8"/>
<stop offset="0.28" stop-color="#4D9BDA"/>
<stop offset="0.48" stop-color="#48BDDD"/>
<stop offset="0.67" stop-color="#44D4DE"/>
<stop offset="0.85" stop-color="#42E3DF"/>
<stop offset="1" stop-color="#42E8E0"/>
</linearGradient>
<linearGradient id="paint22_linear_418_7364" x1="487.834" y1="364.363" x2="756" y2="364.363" gradientUnits="userSpaceOnUse">
<stop stop-color="#5761D7"/>
<stop offset="0.07" stop-color="#5471D8"/>
<stop offset="0.28" stop-color="#4D9BDA"/>
<stop offset="0.48" stop-color="#48BDDD"/>
<stop offset="0.67" stop-color="#44D4DE"/>
<stop offset="0.85" stop-color="#42E3DF"/>
<stop offset="1" stop-color="#42E8E0"/>
</linearGradient>
<linearGradient id="paint23_linear_418_7364" x1="487.85" y1="401.541" x2="756" y2="401.541" gradientUnits="userSpaceOnUse">
<stop stop-color="#5761D7"/>
<stop offset="0.07" stop-color="#5471D8"/>
<stop offset="0.28" stop-color="#4D9BDA"/>
<stop offset="0.48" stop-color="#48BDDD"/>
<stop offset="0.67" stop-color="#44D4DE"/>
<stop offset="0.85" stop-color="#42E3DF"/>
<stop offset="1" stop-color="#42E8E0"/>
</linearGradient>
<linearGradient id="paint24_linear_418_7364" x1="503.53" y1="573.527" x2="251.413" y2="573.527" gradientUnits="userSpaceOnUse">
<stop stop-color="#5761D7"/>
<stop offset="0.07" stop-color="#5471D8"/>
<stop offset="0.28" stop-color="#4D9BDA"/>
<stop offset="0.48" stop-color="#48BDDD"/>
<stop offset="0.67" stop-color="#44D4DE"/>
<stop offset="0.85" stop-color="#42E3DF"/>
<stop offset="1" stop-color="#42E8E0"/>
</linearGradient>
<linearGradient id="paint25_linear_418_7364" x1="503.53" y1="554.145" x2="251.413" y2="554.145" gradientUnits="userSpaceOnUse">
<stop stop-color="#5761D7"/>
<stop offset="0.07" stop-color="#5471D8"/>
<stop offset="0.28" stop-color="#4D9BDA"/>
<stop offset="0.48" stop-color="#48BDDD"/>
<stop offset="0.67" stop-color="#44D4DE"/>
<stop offset="0.85" stop-color="#42E3DF"/>
<stop offset="1" stop-color="#42E8E0"/>
</linearGradient>
<linearGradient id="paint26_linear_418_7364" x1="503.53" y1="534.747" x2="251.413" y2="534.747" gradientUnits="userSpaceOnUse">
<stop stop-color="#5761D7"/>
<stop offset="0.07" stop-color="#5471D8"/>
<stop offset="0.28" stop-color="#4D9BDA"/>
<stop offset="0.48" stop-color="#48BDDD"/>
<stop offset="0.67" stop-color="#44D4DE"/>
<stop offset="0.85" stop-color="#42E3DF"/>
<stop offset="1" stop-color="#42E8E0"/>
</linearGradient>
<linearGradient id="paint27_linear_418_7364" x1="503.53" y1="515.349" x2="251.413" y2="515.349" gradientUnits="userSpaceOnUse">
<stop stop-color="#5761D7"/>
<stop offset="0.07" stop-color="#5471D8"/>
<stop offset="0.28" stop-color="#4D9BDA"/>
<stop offset="0.48" stop-color="#48BDDD"/>
<stop offset="0.67" stop-color="#44D4DE"/>
<stop offset="0.85" stop-color="#42E3DF"/>
<stop offset="1" stop-color="#42E8E0"/>
</linearGradient>
<linearGradient id="paint28_linear_418_7364" x1="503.53" y1="544.438" x2="251.413" y2="544.438" gradientUnits="userSpaceOnUse">
<stop stop-color="#5761D7"/>
<stop offset="0.07" stop-color="#5471D8"/>
<stop offset="0.28" stop-color="#4D9BDA"/>
<stop offset="0.48" stop-color="#48BDDD"/>
<stop offset="0.67" stop-color="#44D4DE"/>
<stop offset="0.85" stop-color="#42E3DF"/>
<stop offset="1" stop-color="#42E8E0"/>
</linearGradient>
<linearGradient id="paint29_linear_418_7364" x1="530.326" y1="482.432" x2="224.633" y2="482.432" gradientUnits="userSpaceOnUse">
<stop stop-color="#5761D7"/>
<stop offset="0.07" stop-color="#5471D8"/>
<stop offset="0.28" stop-color="#4D9BDA"/>
<stop offset="0.48" stop-color="#48BDDD"/>
<stop offset="0.67" stop-color="#44D4DE"/>
<stop offset="0.85" stop-color="#42E3DF"/>
<stop offset="1" stop-color="#42E8E0"/>
</linearGradient>
<linearGradient id="paint30_linear_418_7364" x1="530.326" y1="458.901" x2="224.633" y2="458.901" gradientUnits="userSpaceOnUse">
<stop stop-color="#5761D7"/>
<stop offset="0.07" stop-color="#5471D8"/>
<stop offset="0.28" stop-color="#4D9BDA"/>
<stop offset="0.48" stop-color="#48BDDD"/>
<stop offset="0.67" stop-color="#44D4DE"/>
<stop offset="0.85" stop-color="#42E3DF"/>
<stop offset="1" stop-color="#42E8E0"/>
</linearGradient>
<linearGradient id="paint31_linear_418_7364" x1="530.326" y1="435.387" x2="224.633" y2="435.387" gradientUnits="userSpaceOnUse">
<stop stop-color="#5761D7"/>
<stop offset="0.07" stop-color="#5471D8"/>
<stop offset="0.28" stop-color="#4D9BDA"/>
<stop offset="0.48" stop-color="#48BDDD"/>
<stop offset="0.67" stop-color="#44D4DE"/>
<stop offset="0.85" stop-color="#42E3DF"/>
<stop offset="1" stop-color="#42E8E0"/>
</linearGradient>
<linearGradient id="paint32_linear_418_7364" x1="530.326" y1="411.873" x2="224.633" y2="411.873" gradientUnits="userSpaceOnUse">
<stop stop-color="#5761D7"/>
<stop offset="0.07" stop-color="#5471D8"/>
<stop offset="0.28" stop-color="#4D9BDA"/>
<stop offset="0.48" stop-color="#48BDDD"/>
<stop offset="0.67" stop-color="#44D4DE"/>
<stop offset="0.85" stop-color="#42E3DF"/>
<stop offset="1" stop-color="#42E8E0"/>
</linearGradient>
<linearGradient id="paint33_linear_418_7364" x1="530.326" y1="447.144" x2="224.633" y2="447.144" gradientUnits="userSpaceOnUse">
<stop stop-color="#5761D7"/>
<stop offset="0.07" stop-color="#5471D8"/>
<stop offset="0.28" stop-color="#4D9BDA"/>
<stop offset="0.48" stop-color="#48BDDD"/>
<stop offset="0.67" stop-color="#44D4DE"/>
<stop offset="0.85" stop-color="#42E3DF"/>
<stop offset="1" stop-color="#42E8E0"/>
</linearGradient>
<linearGradient id="paint34_linear_418_7364" x1="530.326" y1="411.873" x2="224.633" y2="411.873" gradientUnits="userSpaceOnUse">
<stop stop-color="#5761D7"/>
<stop offset="0.07" stop-color="#5471D8"/>
<stop offset="0.28" stop-color="#4D9BDA"/>
<stop offset="0.48" stop-color="#48BDDD"/>
<stop offset="0.67" stop-color="#44D4DE"/>
<stop offset="0.85" stop-color="#42E3DF"/>
<stop offset="1" stop-color="#42E8E0"/>
</linearGradient>
<linearGradient id="paint35_linear_418_7364" x1="530.326" y1="454.256" x2="224.633" y2="454.256" gradientUnits="userSpaceOnUse">
<stop stop-color="#5761D7"/>
<stop offset="0.07" stop-color="#5471D8"/>
<stop offset="0.28" stop-color="#4D9BDA"/>
<stop offset="0.48" stop-color="#48BDDD"/>
<stop offset="0.67" stop-color="#44D4DE"/>
<stop offset="0.85" stop-color="#42E3DF"/>
<stop offset="1" stop-color="#42E8E0"/>
</linearGradient>
<linearGradient id="paint36_linear_418_7364" x1="445.48" y1="240.22" x2="413.277" y2="242.088" gradientUnits="userSpaceOnUse">
<stop stop-color="#5761D7"/>
<stop offset="0.07" stop-color="#5471D8"/>
<stop offset="0.28" stop-color="#4D9BDA"/>
<stop offset="0.48" stop-color="#48BDDD"/>
<stop offset="0.67" stop-color="#44D4DE"/>
<stop offset="0.85" stop-color="#42E3DF"/>
<stop offset="1" stop-color="#42E8E0"/>
</linearGradient>
<linearGradient id="paint37_linear_418_7364" x1="400.563" y1="253.304" x2="333.182" y2="257.212" gradientUnits="userSpaceOnUse">
<stop stop-color="#5761D7"/>
<stop offset="0.07" stop-color="#5471D8"/>
<stop offset="0.28" stop-color="#4D9BDA"/>
<stop offset="0.48" stop-color="#48BDDD"/>
<stop offset="0.67" stop-color="#44D4DE"/>
<stop offset="0.85" stop-color="#42E3DF"/>
<stop offset="1" stop-color="#42E8E0"/>
</linearGradient>
<linearGradient id="paint38_linear_418_7364" x1="426.563" y1="166.066" x2="316.985" y2="172.422" gradientUnits="userSpaceOnUse">
<stop stop-color="#5761D7"/>
<stop offset="0.07" stop-color="#5471D8"/>
<stop offset="0.28" stop-color="#4D9BDA"/>
<stop offset="0.48" stop-color="#48BDDD"/>
<stop offset="0.67" stop-color="#44D4DE"/>
<stop offset="0.85" stop-color="#42E3DF"/>
<stop offset="1" stop-color="#42E8E0"/>
</linearGradient>
<clipPath id="clip0_418_7364">
<rect width="756" height="645" fill="white"/>
</clipPath>
</defs>
</svg>
