<svg width="32" height="40" viewBox="0 0 32 40" fill="none" xmlns="http://www.w3.org/2000/svg">
<path d="M31.2627 30.8086L31.2627 15.2614C31.2627 6.83188 24.4293 -0.00156493 15.9998 -0.00156605C7.57027 -0.00156716 0.736825 6.83188 0.736824 15.2614L0.736822 30.8086L31.2627 30.8086Z" fill="#7A5AF8"/>
<path d="M7.16366 30.8101C7.16366 25.7351 11.2398 21.6211 16.2679 21.6211C21.296 21.6211 25.3721 25.7351 25.3721 30.8101L7.16366 30.8101Z" fill="#FE3278"/>
<path d="M7.16366 30.811C7.16366 35.8859 11.2398 40 16.2679 40C21.296 40 25.3721 35.8859 25.3721 30.811L7.16366 30.811Z" fill="#FCD451"/>
<path d="M16.0006 18.375C18.5147 18.375 20.5527 16.2946 20.5527 13.7805C20.5527 11.2664 18.5147 9.186 16.0006 9.186C13.4866 9.186 11.4485 11.2664 11.4485 13.7805C11.4485 16.2946 13.4866 18.375 16.0006 18.375Z" fill="#FAFAFF"/>
</svg>
