<svg width="222" height="199" viewBox="0 0 222 199" fill="none" xmlns="http://www.w3.org/2000/svg">
<circle opacity="0.05" cx="115.871" cy="107.001" r="92" fill="#605BFF"/>
<path fill-rule="evenodd" clip-rule="evenodd" d="M116.278 73.2122C118.517 95.0452 105.684 104.151 102.048 106.27C102.078 106.495 102.093 106.735 102.093 106.976V138.125L108.073 141.416H139.523C139.583 141.416 139.658 141.416 139.718 141.431C146.961 142.423 147.247 133.858 147.247 132.791C147.201 132.25 147.502 131.709 148.028 131.484C152.566 129.53 150.642 123.399 150.462 122.874C150.222 122.258 150.507 121.551 151.108 121.251C156.998 118.396 153.287 113.257 152.806 112.611C152.415 112.19 152.355 111.544 152.671 111.033C163.34 94.6695 130.012 98.7115 127.878 98.982C127.713 99.0121 127.532 99.0271 127.352 98.982C126.646 98.8468 126.195 98.1706 126.33 97.4644C131.304 72.2655 119.839 72.536 116.248 73.1821L116.278 73.2122Z" fill="#605BFF"/>
<path fill-rule="evenodd" clip-rule="evenodd" d="M99.9595 138.501V106.976C99.9595 106.225 99.659 105.549 99.1631 105.068C98.6673 104.572 97.9911 104.271 97.2548 104.271H80.5758C79.8245 104.271 79.1483 104.572 78.6675 105.068C78.1716 105.564 77.8711 106.24 77.8711 106.976V138.501C77.8711 139.252 78.1716 139.928 78.6675 140.409C79.1633 140.905 79.8395 141.206 80.5758 141.206H97.2548C98.0061 141.206 98.6823 140.905 99.1631 140.409C99.5688 140.004 99.8393 139.478 99.9295 138.892C99.9295 138.801 99.9295 138.696 99.9595 138.606C99.9595 138.576 99.9595 138.531 99.9595 138.501Z" fill="#605BFF"/>
<path opacity="0.1" d="M139.637 7.04818C138.777 6.81268 137.919 6.82219 136.939 6.83306C136.694 6.83578 136.449 6.83849 136.204 6.84121C137.417 5.72509 138.63 4.60897 139.473 3.25192C139.714 2.88169 139.22 2.51961 138.977 2.76734C137.519 3.88617 136.185 5.12615 134.85 6.36614C134.833 4.77358 134.815 3.18103 134.797 1.58848C134.789 0.853457 133.686 0.865683 133.694 1.60071C133.712 3.19326 133.731 4.90831 133.749 6.50087C132.634 5.41056 131.52 4.44275 130.406 3.47494C129.912 3.11286 129.306 3.73218 129.8 4.09425C130.669 5.06478 131.537 6.0353 132.529 7.00447C131.303 7.01805 130.078 7.03163 128.854 7.16772C128.364 7.17315 128.372 7.90818 128.862 7.90274C130.334 8.00895 131.682 7.99401 133.03 7.97906C131.938 8.97132 130.847 10.0861 129.879 11.1995C129.394 11.6949 130.136 12.2993 130.622 11.9264C131.714 10.9341 132.808 10.0643 133.777 9.07345C133.792 10.421 133.808 11.891 134.068 13.2359C134.071 13.4809 134.561 13.4754 134.681 13.2291C134.913 12.0013 134.898 10.6538 134.883 9.30623C135.253 9.54716 135.502 9.91196 135.873 10.1529C136.615 10.7573 137.357 11.3616 138.097 11.8435C138.345 12.0858 138.709 11.7142 138.461 11.4719C137.84 10.7437 137.342 10.0141 136.721 9.28586C136.348 8.79991 135.854 8.43784 135.482 8.0744C136.095 8.06761 136.585 8.06217 137.197 8.05538C138.178 8.04452 138.913 8.03636 139.891 7.78049C140.012 7.65663 140.006 7.16661 139.637 7.04818Z" fill="#030229"/>
<path opacity="0.1" d="M12.883 68.8695C12.0225 68.634 11.1647 68.6435 10.1844 68.6544C9.93932 68.6571 9.69423 68.6598 9.44915 68.6625C10.6623 67.5464 11.8755 66.4303 12.7184 65.0733C12.9594 64.703 12.4652 64.3409 12.2228 64.5887C10.6406 65.5864 9.3076 66.9488 7.97322 68.1888C7.95557 66.5963 7.93791 65.0037 7.92026 63.4112C7.91211 62.6762 6.80924 62.6884 6.81739 63.4234C6.83504 65.016 6.85405 66.731 6.87171 68.3236C5.75661 67.2332 4.64287 66.2654 3.52914 65.2976C3.0349 64.9356 2.42898 65.5549 2.92322 65.9169C3.79187 66.8875 4.66053 67.858 5.65172 68.8272C4.42631 68.8407 3.20089 68.8543 1.97684 68.9904C1.48667 68.9958 1.49482 69.7309 1.98498 69.7254C3.45684 69.8316 4.8048 69.8167 6.15275 69.8018C5.06074 70.794 3.97009 71.9088 3.00198 73.0222C2.51725 73.5176 3.25929 74.122 3.74538 73.749C4.83739 72.7568 5.93075 71.887 6.90022 70.8961C6.91516 72.2437 6.93146 73.7137 7.19148 75.0586C7.19419 75.3036 7.68436 75.2981 7.80418 75.0518C8.03569 73.824 8.02075 72.4765 8.00581 71.1289C8.37615 71.3699 8.62531 71.7346 8.99565 71.9756C9.73769 72.58 10.4797 73.1843 11.2204 73.6662C11.4682 73.9085 11.8318 73.5369 11.584 73.2946C10.9631 72.5664 10.4648 71.8368 9.84393 71.1085C9.47088 70.6226 8.97664 70.2605 8.60494 69.8971C9.21765 69.8903 9.70781 69.8849 10.3205 69.8781C11.3009 69.8672 12.0361 69.8591 13.0137 69.6032C13.1349 69.4793 13.1295 68.9893 12.883 68.8695Z" fill="#030229"/>
<path d="M33.5127 28.3323C32.1566 27.6122 30.923 26.8908 29.9291 25.6766C28.8113 24.3413 28.3035 22.7542 27.5506 21.1698C27.5506 21.1698 27.5492 21.0473 27.4267 21.0486L27.3041 21.05C27.3041 21.05 27.3041 21.05 27.1829 21.1739C27.1829 21.1739 27.1829 21.1739 27.1843 21.2964C26.8533 24.608 24.9185 26.9573 22.4907 29.0671C22.3695 29.1909 22.3723 29.4359 22.4962 29.5571C25.2056 30.7522 27.0804 34.0395 27.9681 36.7251C28.0934 36.9687 28.461 36.9646 28.5808 36.7183C29.0533 35.1203 29.4046 33.6462 30.2461 32.1666C31.0876 30.687 32.1783 29.5723 33.5167 28.6998C33.6379 28.576 33.6352 28.331 33.5127 28.3323Z" fill="#605BFF"/>
<path d="M220.766 65.0816C219.41 64.3615 218.176 63.6401 217.305 62.4245C216.187 61.0892 215.679 59.5021 214.927 57.9177C214.927 57.9177 214.925 57.7952 214.803 57.7966L214.68 57.7979C214.68 57.7979 214.68 57.7979 214.559 57.9218C214.559 57.9218 214.559 57.9218 214.56 58.0443C214.229 61.356 212.294 63.7053 209.867 65.815C209.746 65.9389 209.748 66.1839 209.872 66.305C212.582 67.5002 214.456 70.7874 215.344 73.473C215.469 73.7166 215.837 73.7126 215.957 73.4662C216.429 71.8682 216.781 70.3941 217.622 68.9145C218.464 67.435 219.554 66.3202 220.893 65.4477C220.893 65.4477 220.89 65.2027 220.766 65.0816Z" fill="#605BFF"/>
<path d="M130.966 34.9572C129.981 34.478 129.24 33.9962 128.495 33.1468C127.749 32.1749 127.369 31.0764 126.744 29.9807C126.744 29.9807 126.744 29.9807 126.622 29.9821L126.499 29.9834C126.499 29.9834 126.499 29.9834 126.501 30.1059C126.281 32.4362 124.951 34.0437 123.252 35.5328C123.13 35.6566 123.132 35.7791 123.254 35.7778C125.225 36.6136 126.476 38.9276 127.109 40.7583C127.112 41.0033 127.479 40.9993 127.476 40.7543C127.709 39.649 128.065 38.5424 128.667 37.5556C129.268 36.5687 129.996 35.8256 130.969 35.2022C131.092 35.2008 131.089 34.9558 130.966 34.9572Z" fill="#605BFF"/>
<path d="M99.7101 56.8051C97.985 55.9666 96.6276 55.124 95.5084 53.6662C94.1414 51.9661 93.5084 50.1353 92.6288 48.1847C92.6288 48.1847 92.6275 48.0622 92.5049 48.0636L92.3824 48.0649C92.3824 48.0649 92.2599 48.0663 92.2612 48.1888L92.2626 48.3113C91.8159 52.2369 89.5202 55.2028 86.6063 57.6855C86.4852 57.8093 86.4892 58.1768 86.7343 58.1741C90.0592 59.6075 92.3084 63.5032 93.3254 66.7999C93.452 67.1661 93.9422 67.1606 94.0607 66.7918C94.5305 64.9488 95.1228 63.1044 96.0841 61.3785C97.0454 59.6526 98.3785 58.2901 100.083 57.291C99.8381 57.2937 99.9566 56.9249 99.7101 56.8051Z" fill="#605BFF"/>
<path d="M70.3234 25.9504C68.5807 23.5194 66.8393 21.2108 64.6118 19.2752C63.3755 18.3087 62.1392 17.3423 60.7831 16.6222C60.0438 16.2628 59.3058 16.026 58.5665 15.6666C58.1975 15.5482 57.8286 15.4298 57.4582 15.1888C57.0892 15.0704 56.8414 14.8281 56.4752 14.9547C56.2301 14.9574 56.1089 15.0813 56.2342 15.3249C56.3635 15.9361 57.1028 16.2954 57.5971 16.6575C58.2152 17.1408 58.832 17.5015 59.4501 17.9847C60.685 18.8286 61.9213 19.7951 63.0351 20.7629C65.14 22.6999 66.8787 24.7634 68.4975 27.0733C69.245 28.1677 71.0722 27.1673 70.3234 25.9504Z" fill="#FF8F6B"/>
<path d="M69.45 75.1036C68.4439 72.7869 66.102 71.5877 63.7629 70.6335C61.4237 69.6793 58.7183 68.8516 56.2715 69.2463C53.946 69.5171 51.3889 71.0157 50.5555 73.2303C49.9605 74.8296 49.3736 77.164 50.8577 78.3727C51.6011 79.0996 52.9504 79.2071 53.6775 78.464C54.8907 77.3479 53.7688 75.645 52.779 74.7984C48.6943 71.1681 41.8388 71.8567 37.3279 73.9895C34.523 75.2458 32.0952 77.3555 30.656 80.1894C29.455 82.408 28.1505 86.3431 29.7693 88.653C30.0185 89.0178 30.5087 89.0124 30.7497 88.6422C32.0773 86.7897 32.0474 84.0946 33.006 82.1236C33.9632 80.0302 35.5373 78.2975 37.3632 77.1746C41.1348 74.6824 47.6159 73.3854 51.5671 76.037C52.0614 76.3991 53.4188 77.2416 52.6917 77.9848C52.0858 78.6041 51.0987 78.0025 50.7256 77.5165C49.2252 74.8378 52.7464 71.8583 54.9453 71.2213C57.1443 70.5843 59.7244 71.1683 61.8171 72.0027C64.1536 72.712 66.8644 74.0296 68.2341 75.9747C68.8495 76.213 69.7019 75.7134 69.45 75.1036Z" fill="#EF37FF"/>
<path d="M177.032 55.6424C177.154 55.6411 177.153 55.5186 177.03 55.5199C176.908 55.5213 176.909 55.6438 177.032 55.6424Z" fill="#3F3937"/>
<path d="M178.111 53.5476C180.151 49.6044 184.394 45.3917 189.189 46.8088C190.91 47.2798 193.134 48.8479 192.913 51.0556C192.807 52.527 191.08 51.566 190.461 50.9603C188.973 49.384 189.677 46.5583 190.146 44.7153C190.855 42.2571 192.422 39.9119 194.489 38.4187C196.189 37.0522 198.511 36.4138 200.591 36.1457C202.917 35.8749 205.008 36.5868 207.219 37.0524C208.079 37.1654 208.68 36.1786 208.061 35.5728C206.449 33.8754 203.628 33.6617 201.425 33.9311C199.099 34.202 196.655 34.8416 194.709 36.2109C190.816 38.827 187.937 44.3723 188.356 49.0233C188.624 51.1032 191.363 54.9934 193.667 52.7625C194.759 51.7703 194.371 49.9368 193.867 48.7172C192.989 46.8891 191.015 45.6858 189.172 45.2162C183.641 43.8073 179.404 48.51 177.372 53.1882C177.253 53.5571 177.87 53.9178 178.111 53.5476Z" fill="#EF37FF"/>
<path d="M72.0969 48.4875C70.3542 46.0564 68.1281 44.2433 65.5411 43.0468C64.1864 42.4492 62.833 41.9741 61.4823 41.7441C60.2542 41.5126 58.4147 41.4105 57.3186 42.0353C57.0749 42.1605 57.079 42.528 57.3268 42.7703C58.3139 43.3719 59.7858 43.4781 60.8913 43.7109C62.2434 44.0635 63.3503 44.4188 64.5825 45.0177C66.923 46.0944 69.1464 47.6625 70.7612 49.605C71.3821 50.3332 72.7192 49.3382 72.0969 48.4875Z" fill="#FF8F6B"/>
<path d="M44.1258 57.0064C45.2259 56.7492 46.45 56.6131 47.5529 56.6008C48.1656 56.5941 48.7783 56.5873 49.391 56.5805C49.7586 56.5764 50.1262 56.5723 50.37 56.4471C50.6137 56.3219 50.8588 56.3192 51.1025 56.1939C51.3462 56.0687 51.3422 55.7012 51.0957 55.5814C50.8493 55.4616 50.6028 55.3418 50.4789 55.2207C50.2325 55.1009 49.7423 55.1063 49.4959 54.9865C48.8832 54.9933 48.2705 55.0001 47.5366 55.1308C46.3125 55.2669 45.0898 55.5255 43.8685 55.9066C43.1346 56.0372 43.3919 57.137 44.1258 57.0064Z" fill="#FF8F6B"/>
<path d="M174.673 86.1757C178.081 84.0551 181.738 82.2993 185.647 81.1533C187.48 80.6429 189.435 80.1312 191.393 79.8644C192.495 79.7297 193.474 79.5963 194.575 79.4616C195.433 79.4521 196.291 79.4426 197.022 79.0669C197.266 78.9417 197.262 78.5742 197.015 78.4544C196.153 78.0964 195.297 78.2284 194.317 78.2393C193.214 78.2515 192.235 78.3849 191.132 78.3971C189.05 78.5427 186.971 78.9333 184.893 79.4464C180.738 80.4726 177.082 82.3509 173.681 85.084C173.196 85.5795 173.942 86.5514 174.673 86.1757Z" fill="#FF8F6B"/>
<path d="M167.87 80.4927C170.777 77.3975 174.553 75.2728 178.206 73.1495C180.033 72.1491 181.982 71.0248 183.933 70.1456C185.031 69.6433 186.005 69.1424 186.98 68.6415C187.955 68.1407 189.055 67.8834 190.029 67.26C190.273 67.1348 190.269 66.7673 189.9 66.6489C188.917 66.4147 187.818 66.7945 186.839 66.9278C185.615 67.0639 184.516 67.4437 183.418 67.9459C181.224 68.9504 179.03 70.0774 176.96 71.3255C172.941 73.5754 169.413 75.9424 166.635 79.6488C166.152 80.2667 167.263 80.9895 167.87 80.4927Z" fill="#FF8F6B"/>
<path d="M147.741 22.5194C147.615 22.1532 147.611 21.7857 147.483 21.297C147.48 21.052 147.356 20.9309 147.355 20.8084C147.353 20.6859 147.352 20.5634 147.228 20.4422C147.227 20.3197 147.104 20.3211 147.103 20.1986C146.979 20.0774 146.855 19.9563 146.732 19.9576C146.61 19.959 146.489 20.0829 146.367 20.2067C146.369 20.3292 146.246 20.3306 146.248 20.4531C146.249 20.5756 146.25 20.6981 146.252 20.8206C146.254 21.0656 146.257 21.3106 146.382 21.5543C146.386 21.9218 146.513 22.2879 146.64 22.6541L146.638 22.5316L146.64 22.6541C146.641 22.7766 146.766 23.0202 146.89 23.1414C147.014 23.2625 147.261 23.3823 147.382 23.2585C147.504 23.2571 147.748 23.1319 147.747 23.0094C147.747 23.0094 147.744 22.7644 147.741 22.5194Z" fill="#030229"/>
<path d="M152.838 40.1056C152.925 36.9192 153.874 34.0907 154.945 31.1384C155.541 29.6616 156.139 28.3072 156.859 26.9515C157.58 25.5958 158.303 24.4851 158.654 23.011C158.651 22.766 158.402 22.4012 158.16 22.6489C157.552 23.1457 157.189 23.5173 156.705 24.1353C156.345 24.7519 155.985 25.491 155.624 26.1076C154.905 27.5858 154.186 29.064 153.591 30.6633C152.521 33.6156 151.945 36.93 151.858 40.1165C151.987 40.7277 152.845 40.7182 152.838 40.1056Z" fill="#FF8F6B"/>
<path d="M163.148 19.4081C163.268 19.1618 163.389 19.0379 163.509 18.7915C163.509 18.7915 163.511 18.9141 163.388 18.9154C163.388 18.9154 163.387 18.7929 163.509 18.7915L163.63 18.6677C163.752 18.5438 163.752 18.5438 163.873 18.42C164.114 18.0497 164.479 17.8006 164.72 17.4304C164.961 17.0602 165.326 16.8111 165.567 16.4409C165.686 16.1945 165.93 16.0693 166.05 15.8229C166.049 15.7004 166.171 15.6991 166.17 15.5766C166.291 15.4527 166.29 15.3302 166.288 15.2077C166.408 14.9613 166.159 14.5965 165.791 14.6006C165.669 14.602 165.546 14.6033 165.301 14.606C165.179 14.6074 165.18 14.7299 165.057 14.7313C165.057 14.7313 165.057 14.7313 164.935 14.7326C165.057 14.7313 165.057 14.7313 164.935 14.7326C164.69 14.7353 164.447 14.9831 164.204 15.1083C163.716 15.3587 163.353 15.7303 162.989 16.1019C162.626 16.4735 162.262 16.8451 162.022 17.3378C161.781 17.708 161.419 18.2021 161.301 18.571C161.06 18.9412 161.189 19.5524 161.682 19.792C162.419 19.9063 162.907 19.7784 163.148 19.4081Z" fill="#FF8F6B"/>
<path d="M159.113 42.3639C159.47 41.3798 159.95 40.5168 160.307 39.5327C160.664 38.5486 161.022 37.687 161.501 36.7015C161.982 35.8386 162.339 34.8545 162.819 33.9915C163.3 33.1285 164.026 32.2629 164.138 31.2815C164.134 30.9139 163.765 30.7955 163.519 30.7982C162.542 31.0541 162.064 32.1621 161.459 32.9039C160.734 33.7696 160.254 34.755 159.775 35.7405C159.296 36.726 158.939 37.7101 158.584 38.8167C158.466 39.3081 158.227 39.8008 158.234 40.4133C158.116 40.9047 158.123 41.5172 158.129 42.0072C158.013 42.6211 158.873 42.8566 159.113 42.3639Z" fill="#FF8F6B"/>
<path d="M165.828 28.9349C166.066 28.3197 166.428 27.8256 166.791 27.3315C167.273 26.5911 167.508 25.7308 167.992 25.1129C168.475 24.4949 169.085 24.2431 169.692 23.7463C170.299 23.2495 170.907 22.7527 171.513 22.1334C173.817 19.9025 176.491 17.9125 179.291 16.2887C180.023 15.9131 180.754 15.5374 181.485 15.1618C181.972 14.9113 182.702 14.4132 182.328 13.8047C181.702 12.5865 179.268 14.2062 178.537 14.5818C175.736 16.2056 173.434 18.559 170.884 20.6701C170.154 21.1683 169.548 21.7876 168.942 22.4069C168.336 23.0262 167.855 23.8892 167.25 24.5085C166.644 25.1278 165.912 25.5035 165.306 26.1228C164.822 26.6182 164.462 27.3573 164.225 28.0951C163.746 29.0805 165.227 30.0443 165.828 28.9349Z" fill="#FF8F6B"/>
<path opacity="0.5" d="M107.815 36.0715C108.295 35.0861 108.404 33.8597 108.269 32.7585C108.255 31.5334 108.119 30.3098 107.862 29.2099C107.859 28.9649 107.369 28.9704 107.372 29.2154C107.261 30.3193 107.274 31.4218 107.287 32.6468C107.298 33.6269 107.31 34.7294 106.952 35.591C106.714 36.2063 107.577 36.6868 107.815 36.0715Z" fill="#EF37FF"/>
<g opacity="0.5">
<path d="M107.883 20.1433C107.871 19.0408 107.981 17.9369 107.848 16.9582C107.713 15.857 107.335 14.8811 106.711 13.9078C106.586 13.6642 106.097 13.7921 106.224 14.1583C106.736 16.1129 106.759 18.1955 106.782 20.278C106.666 20.8919 107.892 20.8783 107.883 20.1433Z" fill="#EF37FF"/>
</g>
<path opacity="0.5" d="M102.375 9.66765C102.119 8.69034 101.741 7.71438 101.241 6.86229C100.992 6.49749 100.864 6.00883 100.615 5.64404C100.366 5.27924 100.112 4.54694 99.6222 4.55237C99.3772 4.55509 99.1321 4.5578 99.0123 4.80417C98.7726 5.2969 99.1457 5.78284 99.3962 6.27014C99.6453 6.63494 99.8958 7.12224 100.022 7.48839C100.522 8.34048 100.899 9.19394 101.154 10.0487C101.407 10.7811 102.628 10.4 102.375 9.66765Z" fill="#EF37FF"/>
<path opacity="0.5" d="M107.992 7.8901C108.227 6.90735 108.337 5.80346 108.447 4.69956C108.442 4.20955 108.435 3.59703 108.43 3.10701C108.424 2.617 108.417 2.00448 108.167 1.51718C108.04 1.15102 107.55 1.15646 107.432 1.52533C107.192 2.01806 107.199 2.63058 107.204 3.1206C107.21 3.61061 107.215 4.10063 107.221 4.59064C107.231 5.57067 107.12 6.55206 107.008 7.53345C107.011 7.77846 107.137 8.14462 107.382 8.1419C107.63 8.38419 107.997 8.25761 107.992 7.8901Z" fill="#EF37FF"/>
<path opacity="0.5" d="M112.689 11.3912C112.92 10.1634 113.398 9.05544 114 8.06862C114.602 7.08179 115.45 6.21476 116.175 5.22657C116.295 4.98021 116.168 4.61405 115.924 4.73928C114.58 5.12173 113.612 6.23513 113.012 7.34446C112.289 8.45515 111.936 9.80676 111.705 11.0345C111.468 11.7723 112.575 12.1275 112.689 11.3912Z" fill="#EF37FF"/>
<path d="M193.742 59.5003C193.863 59.3764 193.862 59.2539 193.983 59.13C194.103 58.8837 194.223 58.6373 194.22 58.3923C194.217 58.1473 194.216 58.0248 194.336 57.7784L194.334 57.6559C194.333 57.5334 194.332 57.4109 194.33 57.2884C194.327 57.0434 194.325 56.7984 194.2 56.5547C194.197 56.3097 194.073 56.1886 193.949 56.0674C193.698 55.5801 193.204 55.2181 192.59 55.1024C192.837 55.2221 193.083 55.3419 193.331 55.5842C193.083 55.3419 192.837 55.2221 192.592 55.2249C192.345 55.1051 192.1 55.1078 191.979 55.2316C191.734 55.2344 191.613 55.3582 191.369 55.4834C191.125 55.6087 190.883 55.8564 190.763 56.1028C191.128 55.8537 191.37 55.606 191.735 55.3569C191.613 55.3582 191.491 55.4821 191.369 55.4834C191.125 55.6087 190.881 55.7339 190.76 55.8578C190.639 55.9816 190.518 56.1055 190.397 56.2293C190.398 56.3518 190.275 56.3532 190.277 56.4757C190.278 56.5982 190.157 56.7221 190.158 56.8446C190.28 56.7207 190.277 56.4757 190.398 56.3518C190.399 56.4743 190.277 56.4757 190.278 56.5982C190.28 56.7207 190.157 56.7221 190.158 56.8446C190.037 56.9684 190.04 57.2134 189.919 57.3373C189.799 57.5837 189.679 57.83 189.683 58.1976C189.563 58.4439 189.69 58.8101 189.693 59.0551C189.818 59.2987 189.943 59.5424 190.068 59.786C190.194 60.0297 190.441 60.272 190.688 60.3918C190.812 60.5129 191.057 60.5102 191.181 60.6313C191.55 60.7498 192.04 60.7443 192.406 60.6177C192.527 60.4939 192.772 60.4912 192.894 60.3673C193.381 60.1169 193.622 59.7466 193.742 59.5003Z" fill="#FF8F6B"/>
<path d="M188.859 17.0403C188.857 16.9178 188.735 16.9191 188.734 16.7966C188.61 16.6755 188.486 16.5543 188.484 16.4318C188.484 16.4318 188.36 16.3107 188.238 16.312C187.992 16.1923 187.99 16.0698 187.621 15.9513C187.499 15.9527 187.252 15.8329 187.13 15.8343C187.007 15.8356 186.762 15.8383 186.762 15.8383L186.396 15.9649C186.152 16.0901 186.031 16.214 185.911 16.4604C185.79 16.5842 185.79 16.5842 185.791 16.7067C185.793 16.8292 185.67 16.8306 185.671 16.9531C185.552 17.1995 185.433 17.5683 185.437 17.9358C185.441 18.3034 185.566 18.547 185.693 18.9132C186.068 19.5216 186.684 19.8823 187.297 19.8755C187.91 19.8687 188.641 19.4931 188.879 18.8778C188.999 18.6315 189.117 18.2626 189.113 17.8951C189.111 17.6501 188.985 17.4064 188.859 17.0403Z" fill="#FF8F6B"/>
<path d="M98.7091 32.7419C97.6921 29.4452 98.1429 25.8871 98.719 22.5727C98.7163 22.3277 98.4698 22.2079 98.35 22.4543C97.1612 25.7755 96.8357 29.5772 97.8541 32.9964C97.8609 33.6089 98.8385 33.3531 98.7091 32.7419Z" fill="#030229"/>
</svg>
